<svg version="1.1" id="Layer_1" xmlns="http://www.w3.org/2000/svg" xmlns:xlink="http://www.w3.org/1999/xlink" x="0px" y="0px"
	 width="100%" viewBox="0 0 154 150" enable-background="new 0 0 154 150" xml:space="preserve">
<path fill="#14326D" opacity="1.000000" stroke="none" 
	d="
M107.000000,151.000000 
	C71.333336,151.000000 36.166676,151.000000 1.000010,151.000000 
	C1.000006,101.000008 1.000006,51.000019 1.000003,1.000023 
	C52.333317,1.000015 103.666634,1.000015 154.999969,1.000008 
	C154.999969,50.999981 154.999969,100.999962 154.999985,150.999969 
	C139.166672,151.000000 123.333336,151.000000 107.000000,151.000000 
M110.497887,47.932533 
	C110.034409,48.256344 109.570938,48.580151 108.419487,48.805798 
	C96.156334,33.629856 71.588409,33.231491 57.760754,41.237049 
	C41.448158,50.681271 32.477776,70.015549 36.578865,87.974632 
	C41.107971,107.808037 56.691601,121.125023 76.701706,122.261612 
	C95.583046,123.334084 112.747475,111.584267 119.714905,93.040047 
	C119.826973,92.360268 119.939041,91.680481 120.123703,90.393524 
	C120.216667,89.996880 120.309639,89.600227 120.884468,89.080338 
	C120.945221,88.387489 121.005981,87.694649 121.126007,86.213844 
	C121.343086,84.146591 121.560165,82.079330 122.186836,79.719604 
	C122.044098,79.144272 121.901360,78.568947 121.637573,77.225395 
	C121.425087,75.150368 121.212608,73.075333 121.344269,70.684853 
	C121.017776,70.059914 120.691292,69.434975 120.219620,68.121758 
	C119.933609,67.230698 119.647598,66.339638 119.595856,64.671333 
	C119.790855,63.884979 119.985855,63.098621 120.625305,61.979683 
	C120.741081,61.835339 120.856850,61.690990 121.537933,61.524830 
	C122.096588,61.045036 122.655235,60.565243 123.761375,60.027775 
	C124.173058,59.670994 124.584732,59.314213 125.647598,58.874825 
	C127.807335,54.183857 123.050629,56.571522 121.743950,54.586418 
	C122.199432,53.815060 122.654915,53.043705 123.625008,52.128292 
	C123.424072,51.351772 123.223145,50.575253 122.218185,49.429272 
	C121.094452,49.747368 119.970711,50.065468 118.848701,49.507175 
	C118.848701,47.781097 118.848701,46.055019 118.848701,43.539944 
	C117.281929,44.614372 116.402710,45.217304 114.892479,45.870678 
	C113.614037,46.595997 112.335587,47.321316 110.497887,47.932533 
z"/>
<path fill="#F0F2F6" opacity="1.000000" stroke="none" 
	d="
M120.402603,89.203575 
	C120.309639,89.600227 120.216667,89.996880 119.860954,90.903290 
	C119.478989,91.989326 119.359772,92.565598 119.240547,93.141861 
	C112.747475,111.584267 95.583046,123.334084 76.701706,122.261612 
	C56.691601,121.125023 41.107971,107.808037 36.578865,87.974632 
	C32.477776,70.015549 41.448158,50.681271 57.760754,41.237049 
	C71.588409,33.231491 96.156334,33.629856 109.090019,49.151447 
	C107.505981,51.433681 105.251419,53.370270 102.996849,55.306858 
	C103.211205,55.590889 103.425560,55.874916 103.639915,56.158943 
	C104.668221,55.799992 105.696526,55.441040 106.824181,55.473728 
	C107.768486,56.374100 108.613449,56.882835 109.458405,57.391571 
	C109.909523,55.766296 110.360634,54.141022 110.739395,52.115074 
	C110.797081,50.491814 110.927109,49.269226 111.057144,48.046638 
	C112.335587,47.321316 113.614037,46.595997 115.496780,45.941208 
	C117.016380,47.469013 117.931679,48.926292 118.846977,50.383568 
	C119.970711,50.065468 121.094452,49.747368 122.619843,50.026756 
	C123.051125,51.173611 123.080757,51.722977 123.110397,52.272346 
	C122.654915,53.043705 122.199432,53.815060 121.947174,55.206745 
	C123.099068,56.870525 124.047737,57.913979 124.996414,58.957432 
	C124.584732,59.314213 124.173058,59.670994 123.194443,60.065723 
	C122.075882,60.584663 121.524254,61.065651 120.972626,61.546646 
	C120.856850,61.690990 120.741081,61.835339 120.024551,62.063225 
	C116.941971,61.456966 114.460144,60.767166 112.513115,60.226006 
	C111.892639,62.170937 111.445198,63.573452 110.564957,65.032837 
	C107.698593,65.337311 105.265038,65.584908 102.492081,65.863586 
	C100.420082,67.168037 98.687477,68.441391 96.633392,69.845459 
	C94.194115,71.304253 92.076317,72.632324 89.619308,73.979477 
	C87.526039,75.019806 85.771965,76.041054 84.023628,76.723923 
	C85.688126,74.285767 87.346893,72.185997 89.280594,69.876228 
	C93.359573,67.082863 97.163628,64.499504 101.364746,61.825241 
	C102.666138,59.698139 103.570450,57.661938 104.434959,55.715359 
	C102.705811,54.490177 101.324074,53.579121 100.015152,52.573299 
	C85.479927,41.403984 65.643517,42.742584 53.907982,55.699833 
	C41.341946,69.574043 41.307819,89.815109 54.377544,103.050987 
	C64.394394,113.195175 76.750610,116.002434 90.164787,111.175880 
	C103.385094,106.419075 110.959747,96.577202 112.169174,82.508156 
	C112.628738,77.162003 111.724571,71.698616 111.787079,66.249725 
	C114.457901,65.159096 116.638268,62.728870 119.361588,65.448578 
	C119.647598,66.339638 119.933609,67.230698 120.200844,68.768120 
	C120.454750,69.943092 120.727432,70.471703 121.000122,71.000305 
	C121.212608,73.075333 121.425087,75.150368 121.531128,77.772179 
	C121.542206,78.883331 121.659721,79.447708 121.777237,80.012077 
	C121.560165,82.079330 121.343086,84.146591 120.860336,86.810577 
	C120.530632,88.006065 120.466614,88.604820 120.402603,89.203575 
z"/>
<path fill="#6F82A6" opacity="1.000000" stroke="none" 
	d="
M110.997757,64.975967 
	C111.445198,63.573452 111.892639,62.170937 112.513115,60.226006 
	C114.460144,60.767166 116.941971,61.456966 119.802322,62.229515 
	C119.985855,63.098621 119.790855,63.884979 119.478729,65.059952 
	C116.638268,62.728870 114.457901,65.159096 111.627548,65.937851 
	C111.081192,65.435280 111.039474,65.205620 110.997757,64.975967 
z"/>
<path fill="#697EA2" opacity="1.000000" stroke="none" 
	d="
M106.724831,55.082092 
	C105.696526,55.441040 104.668221,55.799992 103.639915,56.158943 
	C103.425560,55.874916 103.211205,55.590889 102.996849,55.306858 
	C105.251419,53.370270 107.505981,51.433681 109.434006,49.200527 
	C109.570938,48.580151 110.034409,48.256344 110.777512,47.989586 
	C110.927109,49.269226 110.797081,50.491814 110.467430,52.284904 
	C109.086823,53.597633 107.905823,54.339859 106.724831,55.082092 
z"/>
<path fill="#E5E9EF" opacity="1.000000" stroke="none" 
	d="
M118.847839,49.945374 
	C117.931679,48.926292 117.016380,47.469013 115.812286,45.915985 
	C116.402710,45.217304 117.281929,44.614372 118.848701,43.539944 
	C118.848701,46.055019 118.848701,47.781097 118.847839,49.945374 
z"/>
<path fill="#E5E9EF" opacity="1.000000" stroke="none" 
	d="
M125.322006,58.916130 
	C124.047737,57.913979 123.099068,56.870525 122.039055,55.533623 
	C123.050629,56.571522 127.807335,54.183857 125.322006,58.916130 
z"/>
<path fill="#E5E9EF" opacity="1.000000" stroke="none" 
	d="
M121.255280,61.535736 
	C121.524254,61.065651 122.075882,60.584663 122.920700,60.094559 
	C122.655235,60.565243 122.096588,61.045036 121.255280,61.535736 
z"/>
<path fill="#6F82A6" opacity="1.000000" stroke="none" 
	d="
M121.172195,70.842575 
	C120.727432,70.471703 120.454750,69.943092 120.273438,69.112259 
	C120.691292,69.434975 121.017776,70.059914 121.172195,70.842575 
z"/>
<path fill="#E5E9EF" opacity="1.000000" stroke="none" 
	d="
M123.367699,52.200317 
	C123.080757,51.722977 123.051125,51.173611 123.021851,50.211487 
	C123.223145,50.575253 123.424072,51.351772 123.367699,52.200317 
z"/>
<path fill="#6F82A6" opacity="1.000000" stroke="none" 
	d="
M121.982040,79.865845 
	C121.659721,79.447708 121.542206,78.883331 121.591644,78.156288 
	C121.901360,78.568947 122.044098,79.144272 121.982040,79.865845 
z"/>
<path fill="#6F82A6" opacity="1.000000" stroke="none" 
	d="
M120.643532,89.141953 
	C120.466614,88.604820 120.530632,88.006065 120.830704,87.204559 
	C121.005981,87.694649 120.945221,88.387489 120.643532,89.141953 
z"/>
<path fill="#6F82A6" opacity="1.000000" stroke="none" 
	d="
M119.477722,93.090958 
	C119.359772,92.565598 119.478989,91.989326 119.824661,91.206879 
	C119.939041,91.680481 119.826973,92.360268 119.477722,93.090958 
z"/>
<path fill="#254177" opacity="1.000000" stroke="none" 
	d="
M110.564957,65.032837 
	C111.039474,65.205620 111.081192,65.435280 111.282425,65.976799 
	C111.724571,71.698616 112.628738,77.162003 112.169174,82.508156 
	C110.959747,96.577202 103.385094,106.419075 90.164787,111.175880 
	C76.750610,116.002434 64.394394,113.195175 54.377544,103.050987 
	C41.307819,89.815109 41.341946,69.574043 53.907982,55.699833 
	C65.643517,42.742584 85.479927,41.403984 100.015152,52.573299 
	C101.324074,53.579121 102.705811,54.490177 104.434959,55.715359 
	C103.570450,57.661938 102.666138,59.698139 101.206955,61.563213 
	C99.529465,60.577534 98.406822,59.762981 96.971985,58.794304 
	C94.720589,57.376270 92.872566,55.936302 90.827370,54.877056 
	C77.739326,48.098518 61.830013,53.085392 54.779362,66.100273 
	C47.762672,79.052467 52.602718,95.844879 65.383690,102.891708 
	C75.374596,108.400223 87.148582,107.258537 96.145790,99.908813 
	C104.970215,92.700241 107.839203,81.285393 103.864807,68.759773 
	C103.506104,67.549156 103.168793,66.690826 102.831482,65.832504 
	C105.265038,65.584908 107.698593,65.337311 110.564957,65.032837 
z"/>
<path fill="#29447A" opacity="1.000000" stroke="none" 
	d="
M97.284180,58.948425 
	C98.406822,59.762981 99.529465,60.577534 100.809891,61.654114 
	C97.163628,64.499504 93.359573,67.082863 88.933067,69.825180 
	C87.202354,69.420036 86.094101,68.855927 84.637589,68.122223 
	C77.710907,65.070068 72.564964,66.151619 68.386818,71.294937 
	C64.768295,75.749359 64.742432,82.416092 68.325928,86.994408 
	C71.896622,91.556366 78.284966,93.290161 83.544846,91.124802 
	C89.313995,88.749786 92.187233,83.297836 91.188286,76.338348 
	C90.786095,75.342308 90.372299,74.651352 89.958511,73.960403 
	C92.076317,72.632324 94.194115,71.304253 96.771637,70.250542 
	C97.312752,70.798393 97.394142,71.071877 97.428833,71.704063 
	C97.600418,73.373283 97.832336,74.681694 98.034798,75.994659 
	C99.514244,85.588600 94.257240,94.605392 85.296211,97.854279 
	C76.547028,101.026367 66.927406,97.557022 61.890686,89.413017 
	C56.882446,81.315071 58.563755,70.584740 65.876595,63.974468 
	C72.310310,58.158863 83.001350,57.971992 90.565239,63.160862 
	C91.800247,64.008087 94.351814,63.816116 95.825714,63.116322 
	C96.760719,62.672398 96.827843,60.400528 97.284180,58.948425 
z"/>
<path fill="#E5E9EF" opacity="1.000000" stroke="none" 
	d="
M84.985847,68.291817 
	C86.094101,68.855927 87.202354,69.420036 88.658142,70.035187 
	C87.346893,72.185997 85.688126,74.285767 84.004852,77.043762 
	C83.982803,78.129219 83.985268,78.556450 83.999390,78.960510 
	C84.011032,78.937340 84.056999,78.962898 83.706345,78.954575 
	C82.897911,78.867256 82.440125,78.788261 81.910416,78.416214 
	C81.189247,77.399994 80.540001,76.676826 80.040024,75.649605 
	C80.461494,74.556580 80.733696,73.767616 81.238510,72.758774 
	C82.642693,71.123199 83.814270,69.707512 84.985847,68.291817 
z"/>
<path fill="#7D8FAF" opacity="1.000000" stroke="none" 
	d="
M97.475540,71.345367 
	C97.394142,71.071877 97.312752,70.798393 97.093109,70.119827 
	C98.687477,68.441391 100.420082,67.168037 102.492081,65.863586 
	C103.168793,66.690826 103.506104,67.549156 103.508934,68.706528 
	C101.274818,69.785507 99.375183,70.565437 97.475540,71.345367 
z"/>
<path fill="#8394B2" opacity="1.000000" stroke="none" 
	d="
M83.987732,78.983673 
	C83.985268,78.556450 83.982803,78.129219 83.999115,77.382156 
	C85.771965,76.041054 87.526039,75.019806 89.619308,73.979477 
	C90.372299,74.651352 90.786095,75.342308 90.802032,76.402870 
	C88.265366,77.509544 86.126549,78.246605 83.987732,78.983673 
z"/>
<path fill="#E5E9EF" opacity="1.000000" stroke="none" 
	d="
M106.824181,55.473724 
	C107.905823,54.339859 109.086823,53.597633 110.539780,52.685574 
	C110.360634,54.141022 109.909523,55.766296 109.458405,57.391571 
	C108.613449,56.882835 107.768486,56.374100 106.824181,55.473724 
z"/>
<path fill="#F0F2F5" opacity="1.000000" stroke="none" 
	d="
M97.428833,71.704063 
	C99.375183,70.565437 101.274818,69.785507 103.530334,69.058823 
	C107.839203,81.285393 104.970215,92.700241 96.145790,99.908813 
	C87.148582,107.258537 75.374596,108.400223 65.383690,102.891708 
	C52.602718,95.844879 47.762672,79.052467 54.779362,66.100273 
	C61.830013,53.085392 77.739326,48.098518 90.827370,54.877056 
	C92.872566,55.936302 94.720589,57.376270 96.971985,58.794304 
	C96.827843,60.400528 96.760719,62.672398 95.825714,63.116322 
	C94.351814,63.816116 91.800247,64.008087 90.565239,63.160862 
	C83.001350,57.971992 72.310310,58.158863 65.876595,63.974468 
	C58.563755,70.584740 56.882446,81.315071 61.890686,89.413017 
	C66.927406,97.557022 76.547028,101.026367 85.296211,97.854279 
	C94.257240,94.605392 99.514244,85.588600 98.034798,75.994659 
	C97.832336,74.681694 97.600418,73.373283 97.428833,71.704063 
z"/>
<path fill="#EEF1F5" opacity="1.000000" stroke="none" 
	d="
M83.999382,78.960510 
	C86.126549,78.246605 88.265366,77.509544 90.790436,76.707962 
	C92.187233,83.297836 89.313995,88.749786 83.544846,91.124802 
	C78.284966,93.290161 71.896622,91.556366 68.325928,86.994408 
	C64.742432,82.416092 64.768295,75.749359 68.386818,71.294937 
	C72.564964,66.151619 77.710907,65.070068 84.637589,68.122223 
	C83.814270,69.707512 82.642693,71.123199 80.843719,72.778625 
	C78.823807,73.360893 76.679260,73.272057 76.186638,74.130829 
	C74.949989,76.286598 73.392334,79.206856 74.011787,81.176224 
	C74.500420,82.729652 78.147522,84.265877 80.184082,84.028374 
	C81.652000,83.857193 82.778320,80.756775 84.056999,78.962898 
	C84.056999,78.962898 84.011032,78.937340 83.999382,78.960510 
z"/>
<path fill="#314C7F" opacity="1.000000" stroke="none" 
	d="
M83.706345,78.954575 
	C82.778320,80.756775 81.652000,83.857193 80.184082,84.028374 
	C78.147522,84.265877 74.500420,82.729652 74.011787,81.176224 
	C73.392334,79.206856 74.949989,76.286598 76.186638,74.130829 
	C76.679260,73.272057 78.823807,73.360893 80.611115,72.998505 
	C80.733696,73.767616 80.461494,74.556580 79.710838,75.793579 
	C78.822052,77.200386 78.411720,78.159157 78.001389,79.117928 
	C79.328377,78.981705 80.655357,78.845482 81.982346,78.709267 
	C82.440125,78.788261 82.897911,78.867256 83.706345,78.954575 
z"/>
<path fill="#F0F2F6" opacity="1.000000" stroke="none" 
	d="
M81.910416,78.416214 
	C80.655357,78.845482 79.328377,78.981705 78.001389,79.117928 
	C78.411720,78.159157 78.822052,77.200386 79.561569,76.097641 
	C80.540001,76.676826 81.189247,77.399994 81.910416,78.416214 
z"/>
</svg>