<svg version="1.1" id="Layer_1" xmlns="http://www.w3.org/2000/svg" xmlns:xlink="http://www.w3.org/1999/xlink" x="0px" y="0px"
	 width="100%" viewBox="0 0 64 64" enable-background="new 0 0 64 64" xml:space="preserve">
<path fill="#183268" opacity="1.000000" stroke="none" 
	d="
M32.000000,65.000000 
	C21.353228,65.000000 11.206455,65.000000 1.029842,65.000000 
	C1.029842,43.728340 1.029842,22.456631 1.029842,1.092460 
	C22.229589,1.092460 43.459717,1.092460 64.844925,1.092460 
	C64.844925,22.332455 64.844925,43.666103 64.844925,65.000000 
	C54.124249,65.000000 43.312122,65.000000 32.000000,65.000000 
M26.493715,27.023209 
	C26.642172,27.398352 26.790628,27.773495 26.937965,28.842934 
	C26.590868,29.810143 26.243769,30.777351 25.097193,31.866310 
	C20.710613,32.190773 23.326723,35.163849 22.832115,37.630314 
	C23.874798,40.980186 24.221920,44.919628 29.217773,45.805367 
	C31.323753,49.344791 28.800999,49.124588 26.521975,49.148338 
	C23.757309,49.177147 20.488501,48.625996 21.432796,53.855675 
	C28.015985,53.855675 34.592819,53.918526 41.165020,53.772667 
	C41.948280,53.755287 42.706287,52.600132 43.476002,51.972359 
	C42.701477,51.054970 42.057777,49.552204 41.124828,49.343708 
	C39.261002,48.927174 37.238609,49.220188 35.012287,49.220188 
	C35.012287,47.516880 35.012287,46.258118 35.511833,45.189285 
	C35.982121,44.734982 36.452408,44.280678 36.972614,43.539074 
	C36.972614,43.539074 37.212505,43.373287 37.964924,43.583111 
	C39.129692,42.508125 40.294456,41.433140 41.459221,40.358150 
	C40.541664,39.883488 39.624111,39.408825 38.686687,38.146111 
	C34.540268,37.815132 30.393847,37.484150 25.642969,37.044540 
	C25.439314,37.023777 25.235657,37.003017 25.390648,36.532215 
	C25.697170,36.301006 26.003695,36.069798 27.184977,35.743771 
	C30.995033,35.760929 34.805088,35.778091 39.222298,36.154369 
	C40.188652,36.615677 41.155006,37.076981 42.352272,37.648518 
	C43.443951,34.157536 42.850517,32.150818 39.046944,31.096233 
	C39.041340,30.101572 39.299034,29.012331 38.981945,28.129555 
	C37.929764,25.200325 37.422302,21.182383 35.275684,19.795147 
	C33.205688,18.457422 29.361553,19.865000 26.404089,20.059452 
	C26.701990,22.541437 26.849749,23.772495 26.870239,25.588245 
	C26.883720,25.986492 26.897202,26.384741 26.826054,27.013025 
	C26.826054,27.013025 27.048006,27.117027 26.493715,27.023209 
z"/>
<path fill="#F1F3F6" opacity="1.000000" stroke="none" 
	d="
M25.896671,31.744560 
	C26.243769,30.777351 26.590868,29.810143 26.967321,28.238031 
	C27.013788,27.461096 27.030897,27.289061 27.048006,27.117027 
	C27.048006,27.117027 26.826054,27.013025 27.280796,26.995699 
	C29.141012,26.929899 30.546482,26.881428 32.225952,26.815456 
	C32.305260,26.303417 32.110573,25.808880 31.513920,25.226397 
	C29.740473,25.093487 28.368990,25.048521 26.997507,25.003553 
	C26.849749,23.772495 26.701990,22.541437 26.404089,20.059452 
	C29.361553,19.865000 33.205688,18.457422 35.275684,19.795147 
	C37.422302,21.182383 37.929764,25.200325 38.981945,28.129555 
	C39.299034,29.012331 39.041340,30.101572 39.019814,31.913015 
	C38.866837,33.751614 38.740990,34.773434 38.615147,35.795250 
	C34.805088,35.778091 30.995033,35.760929 26.641491,35.489143 
	C26.030895,34.071201 25.963783,32.907879 25.896671,31.744560 
z"/>
<path fill="#E2E7EE" opacity="1.000000" stroke="none" 
	d="
M35.012287,44.999355 
	C35.012287,46.258118 35.012287,47.516880 35.012287,49.220188 
	C37.238609,49.220188 39.261002,48.927174 41.124828,49.343708 
	C42.057777,49.552204 42.701477,51.054970 43.476002,51.972359 
	C42.706287,52.600132 41.948280,53.755287 41.165020,53.772667 
	C34.592819,53.918526 28.015985,53.855675 21.432796,53.855675 
	C20.488501,48.625996 23.757309,49.177147 26.521975,49.148338 
	C28.800999,49.124588 31.323753,49.344791 29.579586,45.403229 
	C31.631693,45.000515 33.321991,44.999935 35.012287,44.999355 
z"/>
<path fill="#DDE2EA" opacity="1.000000" stroke="none" 
	d="
M37.212505,43.373287 
	C37.212505,43.373287 36.972614,43.539074 36.554764,43.738152 
	C34.405117,43.621841 32.268112,43.828186 31.035126,42.870567 
	C29.116432,41.380383 27.812126,39.099136 26.247425,37.153168 
	C30.393847,37.484150 34.540268,37.815132 38.467110,38.714600 
	C37.902519,40.646484 37.557514,42.009888 37.212505,43.373287 
z"/>
<path fill="#3D5684" opacity="1.000000" stroke="none" 
	d="
M25.945198,37.098854 
	C27.812126,39.099136 29.116432,41.380383 31.035126,42.870567 
	C32.268112,43.828186 34.405117,43.621841 36.529800,43.881798 
	C36.452408,44.280678 35.982121,44.734982 35.262062,45.094322 
	C33.321991,44.999935 31.631693,45.000515 29.519096,45.011192 
	C24.221920,44.919628 23.874798,40.980186 23.295677,37.330109 
	C24.183493,37.014023 24.607746,36.998138 25.031998,36.982254 
	C25.235657,37.003017 25.439314,37.023777 25.945198,37.098854 
z"/>
<path fill="#2F4779" opacity="1.000000" stroke="none" 
	d="
M38.918724,35.974808 
	C38.740990,34.773434 38.866837,33.751614 39.082451,32.352379 
	C42.850517,32.150818 43.443951,34.157536 42.352272,37.648518 
	C41.155006,37.076981 40.188652,36.615677 38.918724,35.974808 
z"/>
<path fill="#2F4779" opacity="1.000000" stroke="none" 
	d="
M25.211323,36.757233 
	C24.607746,36.998138 24.183493,37.014023 23.443687,37.051117 
	C23.326723,35.163849 20.710613,32.190773 25.496933,31.805435 
	C25.963783,32.907879 26.030895,34.071201 26.204113,35.536552 
	C26.003695,36.069798 25.697170,36.301006 25.211323,36.757233 
z"/>
<path fill="#2F4779" opacity="1.000000" stroke="none" 
	d="
M37.588715,43.478199 
	C37.557514,42.009888 37.902519,40.646484 38.477043,39.108624 
	C39.624111,39.408825 40.541664,39.883488 41.459221,40.358150 
	C40.294456,41.433140 39.129692,42.508125 37.588715,43.478199 
z"/>
<path fill="#344F7F" opacity="1.000000" stroke="none" 
	d="
M26.933872,25.295898 
	C28.368990,25.048521 29.740473,25.093487 31.500538,25.479637 
	C31.910067,26.158201 31.931009,26.495577 31.951954,26.832954 
	C30.546482,26.881428 29.141012,26.929899 27.323112,26.880680 
	C26.897202,26.384741 26.883720,25.986492 26.933872,25.295898 
z"/>
<path fill="#EBEDF2" opacity="1.000000" stroke="none" 
	d="
M26.770861,27.070118 
	C27.030897,27.289061 27.013788,27.461096 26.967882,27.890884 
	C26.790628,27.773495 26.642172,27.398352 26.770861,27.070118 
z"/>
<path fill="#597199" opacity="1.000000" stroke="none" 
	d="
M32.225948,26.815456 
	C31.931009,26.495577 31.910067,26.158201 31.902504,25.567581 
	C32.110573,25.808880 32.305260,26.303417 32.225948,26.815456 
z"/>
</svg>