<?xml version="1.0" standalone="no"?>
<!DOCTYPE svg PUBLIC "-//W3C//DTD SVG 20010904//EN"
 "http://www.w3.org/TR/2001/REC-SVG-20010904/DTD/svg10.dtd">
<svg version="1.0" xmlns="http://www.w3.org/2000/svg"
 width="1024.000000pt" height="1024.000000pt" viewBox="0 0 1024.000000 1024.000000"
 preserveAspectRatio="xMidYMid meet">
<metadata>
Created by potrace 1.16, written by Peter Selinger 2001-2019
</metadata>
<g transform="translate(0.000000,1024.000000) scale(0.100000,-0.100000)"
fill="#000000" stroke="none">
<path d="M4557 7730 c-355 -28 -686 -119 -1001 -277 -260 -130 -466 -282 -697
-512 -239 -240 -354 -400 -508 -708 -281 -560 -344 -1239 -176 -1880 112 -427
348 -844 665 -1176 399 -418 905 -688 1490 -794 134 -25 166 -27 435 -27 322
-1 396 7 645 69 387 97 735 269 1050 521 109 88 316 295 404 404 172 215 360
546 450 791 49 134 102 339 128 499 19 115 22 174 22 405 0 295 -9 373 -77
710 l-32 160 -100 34 -101 34 -182 -113 c-100 -62 -182 -118 -182 -124 0 -6
11 -46 25 -88 55 -174 92 -476 81 -673 -32 -572 -244 -1056 -630 -1440 -302
-301 -654 -490 -1077 -581 -105 -22 -157 -27 -336 -31 -131 -3 -251 -1 -310 6
-723 86 -1348 526 -1668 1175 -292 594 -296 1286 -11 1871 313 640 917 1075
1626 1171 139 18 400 18 547 -1 400 -52 768 -209 1081 -462 50 -41 114 -100
140 -130 l48 -54 174 112 c96 61 176 113 177 114 2 1 8 48 13 105 l11 103 -63
64 c-304 310 -794 568 -1268 668 -245 51 -559 73 -793 55z"/>
<path d="M7330 7257 c-8 -8 -127 -84 -265 -170 -137 -86 -258 -162 -268 -169
-15 -11 -21 -51 -41 -266 -24 -272 -21 -261 -88 -301 l-38 -23 0 24 c0 13 5
74 11 137 6 62 8 115 6 117 -4 4 -276 -165 -299 -185 -4 -3 -12 -66 -19 -140
l-12 -133 -86 -55 c-47 -30 -259 -164 -471 -297 -212 -133 -443 -281 -515
-327 -71 -47 -206 -134 -300 -193 -200 -127 -235 -159 -235 -213 0 -75 60
-133 136 -133 43 0 52 5 311 172 106 67 257 163 335 212 79 50 258 165 398
256 140 92 327 212 416 268 l161 102 133 -45 c74 -25 140 -45 147 -45 7 0 78
42 157 92 l145 93 -140 49 -140 49 48 28 49 28 224 -78 c124 -44 236 -83 249
-88 21 -8 59 13 295 160 149 93 274 173 279 176 4 4 -75 36 -175 71 -101 35
-209 73 -241 85 l-58 21 111 74 c132 87 150 107 150 166 0 36 -6 51 -33 81
-29 31 -41 37 -89 41 -53 4 -58 2 -162 -62 l-108 -66 6 48 c12 100 37 422 34
437 -3 14 -5 14 -18 2z"/>
<path d="M4517 6725 c-559 -91 -1017 -429 -1257 -928 -177 -367 -215 -784
-110 -1186 121 -461 470 -882 905 -1091 349 -168 773 -206 1153 -105 401 107
731 351 975 720 208 317 311 744 263 1101 -22 171 -86 413 -125 473 -7 11 -54
-14 -219 -118 l-210 -132 24 -67 c72 -207 71 -484 -1 -707 -163 -502 -629
-845 -1149 -845 -183 0 -349 40 -521 125 -589 292 -838 1010 -556 1601 69 144
131 233 236 340 132 133 282 228 456 288 418 143 884 41 1202 -263 l82 -78
207 131 c189 120 205 132 196 151 -22 40 -217 222 -308 288 -181 129 -433 239
-658 288 -128 28 -453 35 -585 14z"/>
<path d="M4610 5805 c-215 -43 -418 -200 -515 -399 -57 -116 -75 -185 -82
-316 -12 -235 60 -423 227 -590 145 -145 285 -208 486 -217 131 -7 220 7 323
48 306 122 499 434 477 768 -3 52 -9 98 -13 102 -5 4 -102 -53 -218 -126 -186
-118 -213 -138 -233 -177 -32 -61 -88 -115 -152 -146 -73 -36 -191 -38 -261
-6 -67 31 -124 87 -159 156 -26 53 -30 72 -30 142 0 68 4 90 29 142 34 72 93
126 170 155 54 20 86 21 201 7 8 -1 109 59 223 133 l208 134 -35 30 c-160 140
-422 205 -646 160z"/>
</g>
</svg>
