<svg version="1.1" id="Layer_1" xmlns="http://www.w3.org/2000/svg" xmlns:xlink="http://www.w3.org/1999/xlink" x="0px" y="0px"
	 width="100%" viewBox="0 0 1024 1024" enable-background="new 0 0 1024 1024" xml:space="preserve">
<path fill="#000000" opacity="1.000000" stroke="none" 
	d="
M381.589050,772.474304 
	C326.192596,742.334045 285.397858,698.770752 258.232422,642.443848 
	C246.378998,617.865967 238.608521,591.865845 234.997543,564.832703 
	C229.152451,521.074341 230.947113,477.564819 245.245804,435.583801 
	C269.711060,363.753693 315.114685,309.112946 382.806152,273.798737 
	C409.151062,260.054749 437.271393,251.500748 466.597839,247.161362 
	C494.233063,243.072235 521.888367,243.264099 549.718506,246.506210 
	C611.119812,253.659210 663.745544,278.982574 708.874390,320.776398 
	C712.873169,324.479675 714.347778,328.252655 714.418823,333.782684 
	C714.574463,345.904510 711.905579,355.377411 699.190918,360.202301 
	C692.903015,362.588409 687.319824,366.900818 681.549866,370.550476 
	C679.078796,372.113586 677.415161,371.775146 675.510254,369.701355 
	C651.453857,343.511871 622.370605,324.930542 588.862488,313.362061 
	C571.684143,307.431305 553.943298,304.076721 535.809326,301.922943 
	C508.722717,298.705872 482.225067,301.697510 456.092438,307.848236 
	C423.699738,315.472382 394.518982,330.149200 369.014648,351.760376 
	C337.112061,378.793152 314.465149,412.202606 301.016541,451.722900 
	C290.458252,482.749695 288.145538,514.678040 290.983185,547.256409 
	C294.258728,584.862671 307.290924,618.780640 328.380127,649.690674 
	C353.015594,685.798523 385.448395,712.821472 425.618866,730.201416 
	C444.775787,738.489746 464.861053,743.383911 485.649872,746.069214 
	C505.849731,748.678406 525.933411,748.414917 545.877319,745.437744 
	C585.702209,739.492859 621.574158,724.096375 652.824646,698.375549 
	C684.470398,672.329346 708.352783,640.577698 723.114502,602.264954 
	C731.176453,581.341064 735.513672,559.530090 736.880737,537.124146 
	C738.656372,508.022247 734.339722,479.743530 725.243225,452.175598 
	C723.729187,447.587189 724.581787,445.386993 728.594543,442.975983 
	C738.444275,437.057922 748.048828,430.725372 757.649780,424.404358 
	C760.150085,422.758209 762.409363,422.213165 765.029297,423.808289 
	C765.593445,424.151764 766.220886,424.509796 766.856323,424.600037 
	C776.918518,426.029327 779.976440,433.140900 782.522461,441.910065 
	C791.803101,473.874817 795.918213,506.410645 794.021240,539.574036 
	C791.581238,582.230774 780.438477,622.526428 759.279358,659.829285 
	C735.995605,700.877930 704.445801,734.255737 665.103394,760.207642 
	C641.042480,776.079224 615.116028,787.940552 587.203186,795.464844 
	C559.678894,802.884338 531.700989,806.342102 503.257874,805.289795 
	C474.321564,804.219177 446.149567,798.779480 418.787872,789.143066 
	C406.026825,784.648743 393.732330,779.205750 381.589050,772.474304 
z"/>
<path fill="#000000" opacity="1.000000" stroke="none" 
	d="
M349.569794,447.659454 
	C369.867584,406.223907 400.301361,375.670380 442.762573,358.011292 
	C473.657196,345.162506 505.794800,340.920105 539.132751,345.981659 
	C579.167297,352.059906 613.466980,369.217987 642.136658,397.726227 
	C644.849121,400.423431 647.270813,403.410675 649.898010,406.196808 
	C651.755554,408.166809 651.363342,409.746887 649.241577,411.086578 
	C636.564758,419.090973 623.867859,427.063660 611.199890,435.082001 
	C608.638855,436.703033 606.954956,435.510468 605.129639,433.707336 
	C593.004395,421.729492 578.998962,412.526428 563.217041,406.155212 
	C542.660828,397.856506 521.425659,394.635010 499.201874,396.979645 
	C467.514526,400.322632 440.791718,413.698700 418.836273,436.292877 
	C403.250916,452.331635 393.005646,471.607178 387.932495,493.603546 
	C379.883392,528.503357 384.482391,561.435364 403.370270,591.902161 
	C420.636749,619.753601 445.174164,638.470764 476.726501,647.908142 
	C539.478394,666.677307 605.963440,634.658264 631.720520,575.112915 
	C639.633484,556.819702 643.293030,537.614685 642.653809,517.740112 
	C642.294861,506.578705 640.068359,495.575653 636.283386,485.044830 
	C634.832458,481.007874 635.876587,479.030426 639.235352,476.966736 
	C650.870972,469.817566 662.418274,462.521240 673.894287,455.118195 
	C677.036255,453.091309 678.835754,453.351349 680.386841,456.910614 
	C685.395203,468.403290 688.828247,480.356781 691.270081,492.619720 
	C694.616577,509.425446 694.728638,526.459229 692.994751,543.328308 
	C690.749878,565.169861 684.416321,586.072510 673.929016,605.459473 
	C649.338257,650.918335 612.833923,682.344788 563.114868,697.414062 
	C538.285522,704.939575 512.884216,706.366455 487.065704,702.585693 
	C447.418518,696.779968 413.589020,679.549622 385.351257,651.500977 
	C362.196320,628.501099 346.648743,600.950684 338.560822,569.190613 
	C330.631042,538.051575 330.416199,507.011780 339.014374,476.030304 
	C341.680878,466.422211 345.066986,457.018951 349.569794,447.659454 
z"/>
<path fill="#000000" opacity="1.000000" stroke="none" 
	d="
M837.429321,373.453156 
	C838.413147,373.820801 839.060852,374.001831 839.661011,374.284058 
	C846.445190,377.474823 846.918335,381.882965 840.743103,385.987122 
	C834.780518,389.949921 828.630005,393.629028 822.590515,397.477478 
	C813.180359,403.473816 803.722351,409.399841 794.430786,415.575623 
	C790.311890,418.313263 786.437012,418.705261 781.749817,416.994354 
	C769.250244,412.431763 756.419922,408.729218 744.087830,403.772400 
	C737.365417,401.070374 733.934570,404.765533 729.264648,408.288727 
	C734.084778,413.352234 741.735962,412.696136 746.208191,417.810211 
	C744.227722,420.933807 740.914734,421.657501 738.458496,423.509338 
	C737.399536,424.307709 736.214233,424.947296 735.052979,425.599670 
	C718.356934,434.978973 718.319519,435.091492 699.968567,429.345886 
	C696.514587,428.264465 694.061523,428.856567 691.185181,430.673615 
	C636.693604,465.096741 582.147095,499.432922 527.632080,533.818970 
	C523.037231,536.717224 518.401123,539.319946 512.705261,537.932434 
	C504.666718,535.974243 500.514679,527.565857 503.659241,519.870239 
	C505.373291,515.675476 508.437897,512.646362 512.154236,510.303253 
	C530.470032,498.755066 548.823425,487.266327 567.180237,475.783234 
	C603.890137,452.819397 640.597046,429.850769 677.352539,406.959961 
	C680.398987,405.062653 682.081116,402.559723 681.634033,399.154419 
	C679.892029,385.886749 685.276245,376.885651 697.308167,371.332153 
	C700.744629,369.746002 703.713501,367.155975 706.927795,365.074066 
	C708.023071,364.364655 709.185425,363.400085 710.588318,364.198578 
	C712.028259,365.018127 711.696716,366.462341 711.535034,367.782684 
	C710.829529,373.543915 711.614136,379.352661 710.360779,385.175385 
	C717.881775,384.447052 724.405090,378.205658 724.947449,371.885864 
	C726.128296,358.126923 727.462830,344.380432 728.528259,330.612885 
	C728.801086,327.087250 730.277466,324.717377 733.131592,322.853333 
	C749.446472,312.197784 765.727539,301.490387 782.027466,290.811920 
	C784.773804,289.012695 787.669739,287.665863 790.857727,289.653137 
	C794.202026,291.737915 793.631409,295.069244 793.165894,298.209991 
	C791.563843,309.019043 789.879395,319.815887 788.242920,330.509003 
	C790.571838,331.804047 791.797546,330.282562 793.162537,329.566345 
	C797.793030,327.136688 802.532166,325.372467 807.924194,325.654968 
	C819.735413,326.273773 826.092285,337.190430 820.837708,347.811493 
	C817.914307,353.720642 812.483582,357.143311 807.178711,361.811584 
	C817.135132,366.671509 827.264160,369.596863 837.429321,373.453156 
z"/>
<path fill="#000000" opacity="1.000000" stroke="none" 
	d="
M553.090210,530.100098 
	C565.415405,522.416077 577.422058,514.918457 589.464539,507.478607 
	C593.044678,505.266754 594.565796,506.031250 595.240356,509.985107 
	C598.203125,527.352295 595.824768,543.930054 588.436890,559.929138 
	C572.734131,593.934387 533.300964,614.015015 496.814972,605.770142 
	C462.151489,597.937256 440.058868,576.336182 432.283142,541.760071 
	C422.869995,499.902802 447.066895,457.424133 488.762604,445.674683 
	C516.138184,437.960541 541.420959,443.107910 564.755249,458.961975 
	C565.578247,459.521088 566.426636,460.042755 566.672668,460.201263 
	C566.714966,462.786346 565.487915,463.484589 564.397522,464.181427 
	C552.470459,471.803406 540.501099,479.359528 528.599792,487.021393 
	C526.043152,488.667358 523.534973,489.017212 520.560425,488.413177 
	C498.571777,483.948273 478.063141,498.977600 476.867493,523.424500 
	C476.055756,540.021606 487.675873,555.545044 505.166656,559.903015 
	C522.321045,564.177246 541.859009,554.185547 548.728821,535.091187 
	C549.512573,532.912903 550.694641,531.277649 553.090210,530.100098 
z"/>
</svg>