<?xml version="1.0" standalone="no"?>
<!DOCTYPE svg PUBLIC "-//W3C//DTD SVG 20010904//EN"
 "http://www.w3.org/TR/2001/REC-SVG-20010904/DTD/svg10.dtd">
<svg version="1.0" xmlns="http://www.w3.org/2000/svg"
 width="347.000000pt" height="304.000000pt" viewBox="0 0 347.000000 304.000000"
 preserveAspectRatio="xMidYMid meet">
<metadata>
Created by potrace 1.16, written by Peter Selinger 2001-2019
</metadata>
<g transform="translate(0.000000,304.000000) scale(0.100000,-0.100000)"
fill="#000000" stroke="none">
<path d="M1415 2704 c-297 -53 -559 -212 -735 -446 -79 -104 -163 -277 -197
-403 -24 -92 -27 -116 -27 -295 -1 -213 7 -263 65 -423 34 -95 111 -235 174
-317 99 -128 264 -264 410 -337 365 -183 823 -154 1168 74 150 99 320 291 402
453 34 66 90 233 106 315 31 157 14 433 -37 588 -20 59 -27 59 -154 6 l-98
-42 14 -39 c40 -115 56 -318 33 -444 -45 -257 -187 -478 -402 -623 -75 -51
-203 -107 -302 -132 -122 -30 -313 -31 -430 0 -180 47 -392 184 -507 329 -143
179 -222 445 -198 663 30 271 154 495 360 651 76 58 240 140 325 163 85 23
299 31 388 15 184 -32 362 -120 490 -239 l39 -36 54 60 c29 33 66 77 81 99
l27 38 -44 39 c-114 100 -286 195 -438 243 -175 55 -396 70 -567 40z"/>
<path d="M2639 2471 c-87 -57 -109 -75 -117 -103 -11 -32 -29 -157 -34 -228
-2 -25 -8 -36 -22 -38 -29 -6 -37 17 -30 93 l6 70 -71 -70 c-77 -75 -88 -94
-72 -123 14 -27 4 -35 -273 -217 -263 -173 -318 -205 -351 -205 -24 0 -112
-56 -128 -81 -15 -23 0 -66 28 -85 35 -23 68 -11 129 45 28 27 118 86 201 133
83 47 221 128 309 181 148 90 160 96 179 82 31 -22 45 -19 143 27 l89 42 -63
18 c-63 19 -87 42 -61 59 18 12 66 4 163 -28 106 -34 132 -29 244 46 51 34 92
64 92 66 0 11 -64 36 -129 51 -78 17 -85 29 -33 55 48 25 62 39 62 65 0 25
-24 54 -45 54 -7 0 -37 -16 -65 -35 l-53 -36 7 88 c4 48 10 100 13 115 3 16 2
28 -3 28 -5 0 -57 -31 -115 -69z"/>
<path d="M1479 2265 c-146 -29 -270 -97 -379 -206 -138 -138 -199 -280 -208
-480 -4 -95 -1 -130 17 -200 39 -157 134 -312 248 -403 76 -61 222 -133 309
-151 87 -18 229 -19 315 -1 183 39 367 173 468 341 80 132 120 314 101 453
-10 73 -45 198 -59 215 -7 7 -166 -76 -175 -92 -2 -3 2 -31 10 -61 21 -80 18
-215 -6 -292 -53 -174 -199 -306 -390 -354 -165 -42 -382 29 -500 164 -23 25
-59 83 -82 129 -38 76 -41 91 -46 180 -8 176 34 290 147 403 203 202 510 214
707 29 l52 -50 88 57 c49 32 91 59 93 61 10 7 -97 106 -159 148 -163 108 -361
148 -551 110z"/>
<path d="M1482 1840 c-68 -35 -109 -76 -149 -153 -24 -45 -28 -63 -28 -142 0
-71 5 -100 21 -136 71 -153 234 -221 404 -170 86 26 139 74 185 166 25 51 30
71 30 137 0 42 -3 79 -6 82 -3 3 -41 -14 -85 -39 -66 -37 -83 -52 -104 -92
-56 -106 -160 -123 -239 -39 -19 20 -26 40 -29 85 -4 53 -2 61 27 93 43 50 93
71 148 65 40 -4 52 0 113 40 39 25 67 50 64 55 -4 6 -38 25 -77 44 -61 29 -82
34 -143 34 -59 0 -81 -5 -132 -30z"/>
</g>
</svg>
