<?xml version='1.0' encoding='utf-8'?>
<svg xmlns="http://www.w3.org/2000/svg" width="1000.000000pt" height="2250.000000pt" viewBox="0 0 1000.000000 2250.000000"><rect width="100%" height="100%" fill="#FFFFFF" /><path d="M0 11250 l0 -11250 5000 0 5000 0 0 11250 0 11250 -5000 0 -5000 0 0 -11250z m5805 10456 c190 -52 376 -188 483 -355 160 -247 176 -577 41 -831 -84 -157 -210 -279 -373 -360 -135 -66 -210 -84 -366 -84 -180 0 -331 45 -462 140 l-51 36 -68 -68 -69 -68 25 -26 c14 -14 25 -30 25 -36 0 -5 -152 -161 -337 -346 -341 -340 -375 -368 -442 -368 -88 0 -171 82 -171 170 0 69 27 101 368 443 185 185 341 337 346 337 6 0 22 -11 36 -25 l26 -25 67 68 66 67 -49 75 c-94 140 -133 278 -134 465 0 144 21 233 90 365 115 224 326 384 573 436 85 17 294 12 376 -10z m-663 -4054 c397 -107 687 -412 774 -816 22 -98 21 -307 -1 -411 -39 -186 -140 -379 -264 -506 -52 -54 -61 -60 -80 -50 -33 18 -25 48 32 114 102 118 169 237 214 384 25 82 27 101 27 268 0 168 -2 186 -28 270 -50 162 -127 291 -248 413 -124 125 -282 214 -458 258 -110 28 -355 26 -462 -4 -217 -59 -385 -166 -514 -327 -106 -131 -178 -292 -204 -457 -16 -96 -8 -313 14 -390 46 -168 119 -301 230 -426 31 -35 56 -67 56 -72 0 -12 -29 -40 -43 -40 -20 0 -135 126 -183 200 -333 516 -155 1208 387 1499 91 49 166 76 279 102 116 26 359 21 472 -9z m-60 -223 c431 -110 701 -536 612 -967 -23 -110 -38 -142 -67 -142 -45 0 -50 20 -27 101 30 106 37 245 16 346 -33 165 -105 294 -224 404 -87 80 -158 123 -269 162 -84 30 -95 32 -238 32 -143 0 -154 -2 -238 -32 -120 -42 -186 -84 -282 -178 -93 -90 -149 -181 -192 -310 -23 -70 -27 -96 -27 -215 -1 -115 2 -146 22 -210 l24 -74 -22 -18 c-44 -35 -71 9 -100 161 -14 76 -12 224 4 302 67 313 307 563 614 639 110 27 288 27 394 -1z m-89 -269 c118 -37 213 -147 236 -274 6 -34 11 -179 11 -333 l0 -273 -355 0 -355 0 0 80 0 80 183 0 c100 0 188 4 195 9 8 4 12 19 10 32 l-3 24 -190 5 -190 5 -3 38 -3 37 176 0 c180 0 215 6 215 38 0 38 -18 42 -207 42 l-183 0 0 40 0 40 183 0 c189 0 207 4 207 42 0 32 -35 38 -215 38 l-175 0 6 28 c3 15 7 33 10 40 2 9 48 12 183 12 162 0 181 2 190 18 6 11 6 24 0 35 -9 15 -29 17 -180 17 l-170 0 18 31 c38 65 141 141 218 160 55 13 122 9 188 -11z m-545 -692 c8 -8 12 -54 12 -143 0 -84 5 -151 15 -189 39 -149 153 -260 310 -302 163 -44 355 29 449 171 60 89 68 123 75 299 5 136 8 160 24 170 12 8 22 8 35 0 15 -10 17 -31 20 -150 3 -157 -6 -210 -48 -298 -55 -114 -161 -210 -285 -258 l-56 -21 3 -81 3 -81 201 -5 c216 -5 221 -7 250 -61 17 -34 19 -140 2 -157 -17 -17 -1129 -17 -1146 0 -17 17 -15 123 3 158 26 50 45 55 255 60 l195 5 3 82 3 81 -50 17 c-112 37 -234 143 -286 249 -44 90 -55 150 -55 302 0 143 5 164 40 164 9 0 21 -5 28 -12z m782 -285 c0 -43 -44 -128 -95 -182 -133 -142 -366 -143 -499 -1 -52 56 -83 112 -92 169 l-7 41 347 0 346 0 0 -27z m-203 -2947 c187 -40 361 -127 514 -259 44 -38 49 -46 49 -83 0 -41 -1 -43 -78 -91 l-78 -50 -58 53 c-220 196 -559 265 -846 172 -235 -76 -429 -247 -535 -469 -55 -117 -76 -200 -82 -334 -12 -260 70 -484 245 -667 311 -326 793 -368 1168 -103 66 47 155 139 204 210 47 69 107 201 131 290 40 146 28 390 -25 525 -4 11 16 29 69 63 71 45 78 48 110 37 18 -6 38 -16 43 -23 18 -21 52 -173 64 -282 35 -320 -90 -663 -327 -900 -339 -339 -851 -430 -1272 -226 -182 89 -309 192 -424 344 -138 184 -213 393 -225 632 -22 443 216 854 613 1057 137 71 243 103 403 122 64 8 266 -3 337 -18z m832 -208 c0 -18 -4 -60 -8 -93 -5 -33 -7 -61 -6 -63 2 -2 25 9 52 25 49 27 51 27 77 9 40 -25 32 -62 -21 -101 -23 -16 -42 -33 -42 -36 -1 -3 36 -18 82 -34 45 -15 86 -31 90 -35 6 -5 -134 -101 -210 -144 -7 -4 -53 9 -104 29 -53 20 -100 33 -111 29 -26 -8 -16 -16 40 -35 l46 -15 -62 -43 -63 -42 -57 19 -57 19 -338 -214 c-358 -228 -370 -233 -395 -178 -10 21 -8 28 11 49 12 13 164 115 337 225 217 139 317 209 322 224 3 12 6 39 7 59 1 38 9 46 120 113 12 7 13 -1 8 -48 -5 -47 -3 -55 10 -50 21 8 33 46 34 111 2 104 4 106 119 182 58 38 108 69 113 69 4 1 7 -14 6 -31z m-894 -203 c76 -20 195 -75 249 -117 50 -39 126 -110 126 -119 0 -3 -36 -29 -80 -57 l-81 -52 -51 41 c-209 165 -481 160 -671 -11 -187 -168 -225 -461 -86 -669 246 -369 810 -275 925 154 20 73 18 202 -5 273 l-18 60 72 46 c107 68 99 69 131 -26 27 -76 29 -95 29 -223 0 -154 -15 -221 -77 -337 -94 -177 -285 -323 -474 -363 -243 -51 -477 18 -654 195 -145 144 -210 302 -210 509 0 203 62 352 205 497 102 102 200 161 327 194 92 24 259 26 343 5z m-21 -389 c90 -44 90 -47 -9 -112 -73 -47 -95 -57 -135 -58 -55 -2 -93 -24 -120 -69 -50 -82 1 -195 95 -213 69 -13 148 40 162 107 4 23 24 40 95 84 50 31 93 53 97 50 3 -4 6 -48 6 -98 0 -73 -5 -102 -22 -139 -30 -66 -102 -139 -170 -173 -50 -25 -70 -29 -143 -30 -74 0 -93 4 -144 29 -73 36 -127 90 -163 164 -25 50 -28 68 -28 152 0 83 4 101 27 145 49 93 132 161 225 185 66 16 166 6 227 -24z m-636 -3520 c41 -21 69 -56 81 -101 7 -27 11 -287 11 -817 0 -758 0 -778 19 -788 24 -12 32 -12 51 0 13 8 16 90 20 607 l5 598 23 37 c48 78 155 97 223 41 62 -53 59 0 59 -948 0 -852 0 -865 20 -885 24 -24 29 -24 58 -4 l22 15 0 562 c0 528 1 564 19 597 22 42 70 77 117 86 42 8 118 -28 148 -69 20 -27 21 -45 26 -475 3 -246 9 -453 13 -459 11 -18 52 -16 71 3 14 14 16 87 16 652 0 711 -3 681 70 730 29 20 45 23 90 20 67 -5 102 -27 130 -84 19 -39 20 -59 20 -596 0 -493 2 -558 16 -572 22 -22 50 -20 68 6 14 19 16 69 16 343 0 236 3 324 12 333 17 17 259 17 276 0 7 -7 12 -24 12 -38 0 -43 -17 -50 -112 -50 l-88 0 0 -298 c0 -332 -2 -343 -71 -390 -28 -20 -44 -23 -89 -20 -67 5 -102 27 -130 84 -19 39 -20 59 -20 602 0 545 -1 562 -19 572 -26 13 -33 13 -57 -4 -18 -14 -19 -36 -24 -671 l-5 -656 -41 -39 c-75 -70 -176 -59 -234 27 l-25 37 -3 439 c-2 303 -6 445 -13 454 -15 17 -53 17 -67 0 -8 -9 -12 -191 -14 -584 -3 -562 -3 -572 -24 -600 -56 -75 -146 -95 -215 -49 -73 50 -69 -5 -69 958 0 856 0 865 -20 883 -16 15 -26 17 -48 9 l-27 -9 -5 -602 c-5 -591 -5 -602 -26 -630 -11 -15 -36 -38 -54 -50 -68 -47 -172 -16 -210 62 -19 40 -20 62 -20 827 0 781 0 785 -21 804 -19 17 -23 17 -47 3 l-27 -15 -5 -1084 -5 -1085 -22 -31 c-63 -88 -188 -84 -257 9 -21 28 -21 34 -24 854 -2 583 -6 830 -13 840 -17 20 -56 15 -73 -9 -14 -19 -16 -69 -16 -343 0 -236 -3 -324 -12 -333 -7 -7 -42 -12 -88 -12 -83 0 -100 9 -100 50 0 36 17 50 62 50 l38 0 0 298 c0 270 2 300 19 332 57 108 211 108 268 0 l23 -43 0 -813 0 -813 22 -15 c29 -20 34 -20 58 4 20 20 20 33 20 1093 0 1052 0 1073 20 1105 40 65 132 92 198 58z m1388 6 c6 -4 22 -31 34 -60 24 -56 57 -82 105 -82 39 0 89 -24 113 -55 25 -31 31 -105 10 -105 -41 0 -88 14 -88 26 0 17 -26 30 -75 37 -22 3 -47 8 -56 12 -15 6 -17 -5 -20 -84 -3 -71 -8 -95 -25 -117 -38 -51 -71 -69 -129 -69 -58 0 -91 18 -129 69 -29 38 -29 124 0 163 34 46 82 73 130 73 l44 0 0 78 c0 54 5 84 16 100 15 22 48 29 70 14z m292 -4454 c8 -8 12 -47 12 -108 0 -105 -7 -120 -52 -120 l-28 0 0 -425 0 -425 -40 0 -40 0 -2 423 -3 422 -1047 3 -1048 2 0 -145 0 -145 -40 0 -39 0 -3 143 -3 142 -35 5 -35 5 -3 104 c-2 67 1 108 9 117 10 12 195 14 1198 14 910 0 1190 -3 1199 -12z m-1608 -318 c36 -6 98 -26 139 -46 243 -119 339 -411 215 -657 -36 -70 -145 -177 -215 -210 -148 -69 -326 -63 -464 18 -99 57 -198 192 -224 305 -63 272 118 543 394 589 70 12 82 12 155 1z m570 -435 l0 -445 60 0 60 0 0 148 c0 102 4 152 12 160 7 7 40 12 80 12 l68 0 0 147 c0 186 -2 183 126 183 113 0 124 -9 124 -107 l0 -63 68 0 c40 0 73 -5 80 -12 9 -9 12 -76 12 -240 l0 -228 60 0 60 0 0 -40 0 -40 -439 0 c-391 0 -440 2 -445 16 -3 9 -6 227 -6 485 l0 469 40 0 40 0 0 -445z m-1210 115 l0 -40 -40 0 -40 0 0 40 0 40 40 0 40 0 0 -40z m0 -500 l0 -380 1050 0 1050 0 0 180 0 180 40 0 40 0 0 -180 0 -180 24 0 c46 0 56 -23 56 -129 0 -70 -4 -102 -13 -110 -10 -7 -147 -12 -446 -13 l-432 -3 186 -297 c222 -355 219 -338 61 -338 -86 0 -105 3 -118 18 -8 9 -84 128 -169 264 l-154 248 -3 -252 c-1 -169 -6 -256 -14 -265 -8 -10 -37 -13 -117 -11 l-106 3 -5 265 -5 265 -166 -265 -165 -265 -103 -3 c-102 -3 -131 4 -131 33 0 7 83 145 183 306 l184 294 -430 3 c-297 1 -434 6 -444 13 -9 8 -13 41 -13 115 0 92 2 104 19 114 11 5 29 10 40 10 21 0 21 3 21 380 l0 380 40 0 40 0 0 -380z m240 -265 l0 -45 -40 0 -40 0 0 45 0 45 40 0 40 0 0 -45z m245 0 c0 -40 0 -40 -42 -43 l-43 -3 0 46 0 46 43 -3 c42 -3 42 -3 42 -43z m243 3 c-3 -43 -3 -43 -43 -43 -40 0 -40 0 -43 43 l-3 42 46 0 46 0 -3 -42z m242 -4 l0 -45 -42 3 c-39 3 -43 6 -46 31 -6 46 4 57 48 57 l40 0 0 -46z m400 1 l0 -45 -120 0 -120 0 0 45 0 45 120 0 120 0 0 -45z m650 0 l0 -45 -285 0 -285 0 0 45 0 45 285 0 285 0 0 -45z" fill="#063471" stroke="none" /><path d="M5465 21546 c-209 -48 -371 -175 -460 -361 -55 -113 -69 -186 -63 -318 8 -171 68 -307 189 -427 143 -142 331 -209 533 -188 276 27 513 243 572 519 19 87 14 224 -12 309 -81 274 -320 462 -604 475 -61 3 -117 0 -155 -9z m305 -105 l55 -17 -90 -7 c-146 -10 -281 -65 -393 -161 -159 -137 -246 -302 -261 -496 l-7 -95 -19 60 c-28 88 -27 237 3 332 28 89 104 205 174 265 61 52 156 102 231 123 75 20 239 18 307 -4z" fill="#063471" stroke="none" /><path d="M3660 4360 l0 -40 1131 0 1130 0 -3 38 -3 37 -1127 3 -1128 2 0 -40z" fill="#063471" stroke="none" /><path d="M4170 4049 c-30 -10 -77 -36 -105 -57 -52 -39 -120 -120 -110 -131 4 -3 81 -36 173 -73 l167 -67 130 130 130 130 -30 25 c-74 60 -246 81 -355 43z" fill="#063471" stroke="none" /><path d="M4490 3795 l-125 -125 127 -126 126 -127 31 54 c17 30 36 77 42 105 17 77 7 198 -23 264 -42 94 -39 95 -178 -45z" fill="#063471" stroke="none" /><path d="M3917 3763 c-35 -121 1 -261 94 -366 27 -31 66 -59 117 -84 71 -36 82 -38 166 -38 96 0 182 24 236 65 l25 19 -138 139 -138 138 -167 68 c-92 38 -172 70 -179 73 -6 2 -14 -4 -16 -14z" fill="#063471" stroke="none" /><path d="M5320 3550 l0 -280 35 0 35 0 0 280 0 280 -35 0 -35 0 0 -280z" fill="#063471" stroke="none" /><path d="M5480 3470 l0 -200 35 0 35 0 0 200 0 200 -35 0 -35 0 0 -200z" fill="#063471" stroke="none" /><path d="M5150 3390 l0 -120 40 0 40 0 0 120 0 120 -40 0 -40 0 0 -120z" fill="#063471" stroke="none" /><path d="M3660 2820 l0 -40 1128 2 1127 3 3 38 3 37 -1130 0 -1131 0 0 -40z" fill="#063471" stroke="none" /><path d="M4527 2633 c-321 -511 -307 -488 -280 -491 14 -2 31 2 38 10 7 7 81 123 165 258 84 135 160 255 168 268 14 21 13 22 -17 22 -28 0 -36 -7 -74 -67z" fill="#063471" stroke="none" /><path d="M4750 2420 l0 -280 40 0 40 0 0 280 0 280 -40 0 -40 0 0 -280z" fill="#063471" stroke="none" /><path d="M4952 2692 c2 -5 79 -131 173 -280 156 -249 172 -272 197 -272 16 0 28 3 28 6 0 3 -77 129 -171 280 -162 259 -173 274 -201 274 -16 0 -28 -4 -26 -8z" fill="#063471" stroke="none" /><g transform="translate(0.000000,2250.000000) scale(0.100000,-0.100000)" fill="#000000" stroke="none" /></svg>