<?xml version="1.0" standalone="no"?>
<!DOCTYPE svg PUBLIC "-//W3C//DTD SVG 20010904//EN"
 "http://www.w3.org/TR/2001/REC-SVG-20010904/DTD/svg10.dtd">
<svg version="1.0" xmlns="http://www.w3.org/2000/svg"
 width="1024.000000pt" height="1024.000000pt" viewBox="0 0 1024.000000 1024.000000"
 preserveAspectRatio="xMidYMid meet">
<metadata>
Created by potrace 1.16, written by Peter Selinger 2001-2019
</metadata>
<g transform="translate(0.000000,1024.000000) scale(0.100000,-0.100000)"
fill="#000000" stroke="none">
<path d="M1520 7993 l-31 -28 0 -264 c0 -335 -1 -331 164 -331 l82 0 -3 -430
-2 -431 100 3 101 3 2 430 2 430 3035 0 3035 0 3 -1177 2 -1178 100 0 100 0 0
1175 0 1175 81 0 c85 0 113 9 141 44 16 19 18 50 18 289 l0 268 -25 24 -24 25
-3425 0 -3426 0 -30 -27z m6730 -298 l0 -115 -3285 0 -3285 0 3 115 2 115
3283 0 3282 0 0 -115z"/>
<path d="M5186 5806 c1 -728 5 -1333 9 -1345 17 -53 -35 -51 1282 -49 l1218 3
3 103 3 102 -174 0 -174 0 -7 61 c-3 34 -6 317 -6 628 0 497 -2 569 -16 589
-32 46 -57 50 -257 49 l-187 -2 0 198 c0 210 -8 254 -48 276 -27 14 -503 15
-553 1 -20 -6 -45 -20 -55 -31 -18 -20 -19 -40 -15 -460 l4 -438 -216 -3
c-242 -3 -242 -3 -257 -74 -4 -21 -8 -209 -7 -416 l2 -378 -172 0 -173 0 0
1255 0 1255 -102 0 -103 0 1 -1324z m1488 -98 c4 -282 6 -643 4 -803 l-3 -290
-132 -3 -133 -3 0 806 0 805 129 0 129 0 6 -512z m465 -595 l1 -503 -132 0
-133 0 1 373 c1 204 2 458 2 564 l2 192 123 3 122 3 6 -65 c4 -36 7 -291 8
-567z m-931 -160 l2 -333 -135 0 -135 0 0 328 c0 181 3 332 7 336 4 3 63 5
132 4 l126 -3 3 -332z"/>
<path d="M3285 7090 c-404 -81 -753 -349 -940 -719 -153 -305 -180 -714 -69
-1037 139 -405 458 -722 865 -859 156 -52 275 -68 454 -62 215 7 351 41 550
137 428 206 703 607 755 1103 27 254 -49 587 -186 811 -204 334 -539 566 -908
631 -126 21 -402 19 -521 -5z m510 -195 c101 -22 189 -52 279 -96 86 -43 206
-124 206 -140 0 -15 -759 -764 -778 -767 -9 -1 -132 42 -272 97 -562 218 -705
274 -710 278 -13 12 116 206 189 286 71 77 242 205 335 250 120 58 213 84 411
111 56 8 270 -4 340 -19z m680 -430 c136 -188 203 -364 224 -594 28 -305 -65
-621 -246 -829 l-38 -44 -270 279 c-148 153 -314 324 -369 381 l-100 102 374
379 c206 208 377 379 380 379 3 1 23 -23 45 -53z m-1582 -560 c243 -96 472
-187 508 -202 60 -25 82 -44 234 -203 93 -96 271 -279 397 -406 125 -127 228
-234 228 -236 0 -10 -118 -87 -185 -120 -179 -90 -322 -123 -530 -122 -161 0
-265 19 -405 71 -321 121 -589 409 -684 734 -38 132 -49 233 -43 392 4 123 23
267 34 267 2 0 203 -79 446 -175z"/>
<path d="M1730 6180 l0 -110 105 0 106 0 -3 108 -3 107 -102 3 -103 3 0 -111z"/>
<path d="M1730 4800 l0 -1040 -75 0 c-83 0 -137 -17 -154 -48 -7 -13 -11 -112
-11 -275 0 -241 1 -256 21 -280 11 -15 37 -31 57 -37 26 -8 410 -10 1245 -8
664 2 1207 2 1207 1 0 -4 -320 -509 -452 -713 -570 -882 -568 -879 -568 -914
0 -17 7 -42 16 -55 32 -45 67 -51 311 -51 261 0 271 3 321 86 15 25 90 144
168 263 77 119 252 392 389 606 267 419 412 644 427 660 5 6 8 -305 8 -768 -2
-853 -5 -814 56 -837 14 -6 137 -10 274 -10 249 0 249 0 277 24 l28 24 5 779
5 778 60 -93 c33 -51 131 -202 219 -335 87 -133 233 -359 324 -502 91 -143
209 -326 261 -407 53 -81 110 -169 126 -195 43 -68 59 -72 323 -72 281 -1 312
9 312 102 0 37 -34 97 -196 346 -52 80 -141 218 -199 306 -266 410 -555 864
-617 970 -4 7 406 9 1223 7 1332 -2 1277 -5 1313 51 14 20 17 63 18 271 1 232
0 249 -19 274 -30 41 -61 52 -146 52 l-78 0 3 515 3 515 -102 0 -103 0 0 -515
0 -515 -3040 0 -3040 0 3 1040 2 1040 -102 0 -103 0 0 -1040z m6520 -1365 l0
-115 -3283 0 -3284 0 1 115 1 115 3283 0 3282 0 0 -115z m-2598 -330 c3 -10
48 -79 263 -405 57 -85 133 -204 170 -265 37 -60 107 -168 155 -240 48 -71
134 -204 191 -295 56 -91 127 -200 157 -243 l54 -78 -108 3 -108 3 -102 160
c-98 154 -263 408 -641 990 -97 149 -190 295 -208 325 l-31 55 103 0 c60 0
104 -4 105 -10z m-1192 0 c0 -6 -367 -580 -825 -1292 l-150 -233 -103 0 c-57
0 -102 3 -100 8 3 7 51 81 232 360 49 75 146 227 216 337 177 280 510 797 522
813 7 8 42 12 109 12 55 0 99 -2 99 -5z m620 -757 l0 -763 -123 0 -122 0 3
763 2 762 120 0 120 0 0 -762z"/>
<path d="M3808 4087 l-3 -107 108 0 107 0 0 108 0 107 -104 0 -105 0 -3 -108z"/>
<path d="M4510 4090 l0 -110 100 0 100 0 0 110 0 110 -100 0 -100 0 0 -110z"/>
<path d="M2420 4085 l0 -105 105 0 105 0 0 105 0 105 -105 0 -105 0 0 -105z"/>
<path d="M3110 4085 l0 -105 105 0 105 0 0 105 0 105 -105 0 -105 0 0 -105z"/>
<path d="M5190 4083 l0 -108 330 3 330 3 0 104 0 105 -330 0 -330 0 0 -107z"/>
<path d="M6090 4085 l0 -105 805 0 805 0 0 105 0 105 -805 0 -805 0 0 -105z"/>
</g>
</svg>
