<svg version="1.1" id="Layer_1" xmlns="http://www.w3.org/2000/svg" xmlns:xlink="http://www.w3.org/1999/xlink" x="0px" y="0px"
	 width="100%" viewBox="0 0 144 142" enable-background="new 0 0 144 142" xml:space="preserve">
<path fill="#15336D" opacity="1.000000" stroke="none" 
	d="
M84.000000,143.000000 
	C56.024055,143.000000 28.548109,143.000000 1.036081,143.000000 
	C1.036081,95.732147 1.036081,48.464260 1.036081,1.098185 
	C48.892380,1.098185 96.785027,1.098185 144.838837,1.098185 
	C144.838837,48.332893 144.838837,95.666397 144.838837,143.000000 
	C124.797981,143.000000 104.648994,143.000000 84.000000,143.000000 
M86.991356,66.005775 
	C86.991356,66.005775 86.963066,65.976524 86.229370,66.224678 
	C85.820740,69.820351 85.412109,73.416023 84.157417,77.180420 
	C83.467232,75.774361 82.209236,74.380600 82.178482,72.960258 
	C81.969711,63.318848 82.019852,53.671829 82.042503,43.241898 
	C82.017265,42.455730 81.992020,41.669563 82.896294,40.720413 
	C93.657494,40.720413 104.418686,40.720413 115.812813,40.720413 
	C115.812813,43.085094 115.812813,44.866322 115.812813,46.647549 
	C115.812813,54.133228 115.745476,61.620079 115.875183,69.103508 
	C115.898407,70.443504 116.736198,71.769386 117.197891,73.101784 
	C117.844498,72.963387 118.491096,72.824989 119.137703,72.686592 
	C119.137703,70.602493 119.089226,68.517059 119.146172,66.434517 
	C119.381081,57.843403 119.647972,49.253162 120.592796,40.668247 
	C121.052292,38.114449 121.511787,35.560646 121.769623,32.218365 
	C120.363213,31.875101 118.957390,31.235199 117.550308,31.232403 
	C89.747345,31.177139 61.943924,31.146040 34.141922,31.320581 
	C32.442272,31.331249 29.712122,32.758453 29.285204,34.104847 
	C28.493036,36.603138 28.156916,39.917370 32.103294,41.864544 
	C32.144623,44.310337 31.978970,46.782288 32.283791,49.194786 
	C32.607513,51.756886 33.355289,51.837139 35.752144,49.019207 
	C35.752144,46.412731 35.752144,43.806255 35.752144,40.976654 
	C41.863865,40.976654 47.432407,40.976654 53.035618,41.823910 
	C53.081337,42.387318 53.127056,42.950729 52.583172,43.846470 
	C45.339008,46.507275 40.167294,51.094276 37.918335,58.894669 
	C37.481148,58.189159 37.007538,57.503239 36.615124,56.773643 
	C35.994041,55.618904 35.620327,54.244526 34.743702,53.355972 
	C34.387478,52.994896 32.401733,53.406990 32.179291,53.914860 
	C31.647800,55.128307 31.514627,56.625122 31.627108,57.973614 
	C31.702642,58.879196 32.473282,59.726799 32.623692,61.554337 
	C32.540512,64.363342 32.472446,67.172890 32.371124,69.981247 
	C32.133602,76.564384 31.880150,83.146950 30.946142,89.980789 
	C30.546886,90.992661 30.147631,92.004524 29.427574,93.818878 
	C29.625023,95.210068 29.822472,96.601265 30.313156,98.700569 
	C39.260899,98.903328 48.212040,99.021759 57.153404,99.382660 
	C58.865417,99.451767 60.538891,100.475662 61.922588,101.482544 
	C61.958420,101.653290 61.994247,101.824028 61.881466,102.354797 
	C61.881466,102.354797 61.929249,102.741364 61.391212,102.999557 
	C61.267563,103.330658 61.143913,103.661758 60.720783,104.612701 
	C57.098843,109.971260 53.406994,115.285828 49.964371,120.757210 
	C49.624584,121.297241 51.182564,123.738197 51.235256,123.717377 
	C54.574993,122.397003 59.541676,124.896240 61.185486,119.428108 
	C61.738995,117.586853 63.122475,115.995094 64.607132,113.981270 
	C64.903427,113.307602 65.199730,112.633934 65.998795,111.474274 
	C67.018211,109.692856 68.037628,107.911438 69.776733,105.910515 
	C70.253395,105.922264 70.730057,105.934006 71.113419,106.880119 
	C71.405785,112.254608 71.698151,117.629089 72.266144,123.610413 
	C74.660011,123.498329 77.053879,123.386238 80.100044,122.670387 
	C80.168472,117.603302 80.236893,112.536209 80.944122,107.025742 
	C81.899643,107.621071 83.182716,107.996353 83.755424,108.848854 
	C86.621811,113.115616 89.243690,117.545891 92.072037,121.839294 
	C93.512215,124.025497 99.878456,125.402374 100.788467,123.531059 
	C101.508507,122.050385 100.492737,119.435570 99.678513,117.573296 
	C98.692780,115.318794 97.093353,113.335175 95.784988,111.218575 
	C93.572182,107.638840 91.379379,104.046745 88.466080,99.299477 
	C97.008766,99.299477 104.082535,99.393829 111.151917,99.258614 
	C114.550415,99.193611 117.940628,98.695221 121.331680,98.330070 
	C121.331680,98.330070 121.392639,98.346359 121.956245,97.915459 
	C121.921242,95.486420 122.884033,92.021530 121.652206,90.834961 
	C118.708084,87.999001 119.497528,84.877487 119.328262,81.723335 
	C119.257645,80.407364 119.488792,79.032478 119.172714,77.788574 
	C118.985687,77.052505 117.840523,75.911438 117.402878,76.024399 
	C116.529083,76.249947 115.299797,77.131531 115.186241,77.887688 
	C114.846291,80.151382 114.973526,82.485245 114.244278,83.816177 
	C113.756912,82.749184 113.269554,81.682190 112.743568,79.897034 
	C111.395676,78.563622 110.047783,77.230217 108.282585,75.483986 
	C108.282585,72.124100 108.042267,68.136108 108.349380,64.190727 
	C108.663933,60.149773 107.145683,58.282780 103.109268,57.667477 
	C102.358871,55.851521 101.766113,52.598652 100.827797,52.495720 
	C98.267448,52.214848 95.561279,53.263290 92.669350,54.688786 
	C92.627029,57.761402 92.584709,60.834019 91.798920,63.888252 
	C90.192787,64.581490 88.586655,65.274734 86.991356,66.005775 
z"/>
<path fill="#EAEDF2" opacity="1.000000" stroke="none" 
	d="
M119.903107,40.662598 
	C119.647972,49.253162 119.381081,57.843403 119.146172,66.434517 
	C119.089226,68.517059 119.137703,70.602493 119.137703,72.686592 
	C118.491096,72.824989 117.844498,72.963387 117.197891,73.101784 
	C116.736198,71.769386 115.898407,70.443504 115.875183,69.103508 
	C115.745476,61.620079 115.812813,54.133228 115.812813,46.647549 
	C115.812813,44.866322 115.812813,43.085094 115.812813,40.720413 
	C104.418686,40.720413 93.657494,40.720413 82.078262,40.666092 
	C80.519081,40.695835 79.777924,40.779900 78.572105,40.779434 
	C71.920189,40.783985 65.732941,40.873070 59.218327,40.844574 
	C57.748150,40.802040 56.605335,40.877090 55.056984,40.837975 
	C54.101284,40.808094 53.551117,40.892376 53.000950,40.976654 
	C47.432407,40.976654 41.863865,40.976654 35.752144,40.976654 
	C35.752144,43.806255 35.752144,46.412731 35.338505,49.283695 
	C34.546589,48.054886 34.249039,46.534916 33.766911,45.075935 
	C33.302235,43.669762 32.646923,42.326584 32.075363,40.955727 
	C28.156916,39.917370 28.493036,36.603138 29.285204,34.104847 
	C29.712122,32.758453 32.442272,31.331249 34.141922,31.320581 
	C61.943924,31.146040 89.747345,31.177139 117.550308,31.232403 
	C118.957390,31.235199 120.363213,31.875101 121.668449,32.912933 
	C121.012550,35.959202 120.457832,38.310902 119.903107,40.662598 
M34.899967,37.323326 
	C62.837822,37.323326 90.775681,37.323326 118.713531,37.323326 
	C118.804718,36.585682 118.895905,35.848038 118.987083,35.110394 
	C117.345558,34.778408 115.704697,34.161022 114.062393,34.157146 
	C88.449265,34.096687 62.835945,34.110676 37.222691,34.130020 
	C35.901974,34.131020 34.581417,34.334503 33.260784,34.443714 
	C33.506149,35.371387 33.751514,36.299061 34.899967,37.323326 
z"/>
<path fill="#D8DDE7" opacity="1.000000" stroke="none" 
	d="
M55.462517,40.952137 
	C56.605335,40.877090 57.748150,40.802040 58.685600,41.054413 
	C59.460613,42.188976 60.383553,43.081356 61.431805,43.787785 
	C65.016754,46.203709 68.645721,48.554302 72.216225,51.308926 
	C75.520195,57.146431 75.328529,63.098835 74.440247,69.445618 
	C72.012695,74.827011 67.940498,77.879799 62.637119,79.935974 
	C61.180798,80.234718 60.076431,80.556938 58.576248,80.814972 
	C57.116230,80.794205 56.052025,80.837616 54.697548,80.663635 
	C42.900639,77.377922 39.089249,72.221565 38.530197,58.966461 
	C40.167294,51.094276 45.339008,46.507275 53.421829,43.683304 
	C54.661167,42.664135 55.061840,41.808136 55.462517,40.952137 
M58.275200,77.948402 
	C60.904030,76.924446 63.532856,75.900490 66.597740,74.706680 
	C61.271679,66.494972 54.330273,62.069614 46.278606,59.151031 
	C42.060032,57.621876 40.537647,59.022659 41.281082,63.557392 
	C42.647259,71.890701 48.780685,77.357864 58.275200,77.948402 
M46.130447,55.733105 
	C48.433899,56.666641 50.698818,57.717598 53.054913,58.490696 
	C54.522270,58.972164 56.764496,59.804585 57.559006,59.148159 
	C60.763527,56.500584 63.540371,53.335361 66.563362,50.271919 
	C59.598804,45.434319 51.154427,46.081474 46.422371,51.435303 
	C45.627529,52.334579 45.790703,54.080608 46.130447,55.733105 
M67.547050,69.937653 
	C68.676262,69.613701 70.372002,69.649857 70.843605,68.907906 
	C74.135689,63.728718 73.477852,58.439972 69.068558,53.201588 
	C68.561989,53.512157 67.961403,53.767277 67.501244,54.179245 
	C59.193378,61.617016 59.197002,61.621067 67.547050,69.937653 
z"/>
<path fill="#DCE0E9" opacity="1.000000" stroke="none" 
	d="
M92.542389,63.906635 
	C92.584709,60.834019 92.627029,57.761402 93.241020,54.270767 
	C96.040642,53.852753 98.268585,53.852753 99.602486,53.852753 
	C101.100143,55.810417 102.108398,57.128357 103.116653,58.446297 
	C107.145683,58.282780 108.663933,60.149773 108.349380,64.190727 
	C108.042267,68.136108 108.282585,72.124100 108.282585,75.483986 
	C110.047783,77.230217 111.395676,78.563622 112.309471,80.224838 
	C105.165756,80.710426 98.456146,80.868202 91.309845,80.921738 
	C89.669609,80.870247 88.466064,80.922989 86.971985,80.816414 
	C84.505829,80.643486 82.330200,80.629868 79.869896,80.327377 
	C79.335861,78.938293 78.871460,77.838280 78.870430,76.737846 
	C78.860191,65.803207 78.926521,54.868488 79.348801,43.880859 
	C80.479713,43.894157 81.233025,43.960388 81.986343,44.026623 
	C82.019852,53.671829 81.969711,63.318848 82.178482,72.960258 
	C82.209236,74.380600 83.467232,75.774361 84.988838,77.073357 
	C86.201195,73.303040 86.582130,69.639778 86.963066,65.976524 
	C86.963066,65.976524 86.991356,66.005775 87.365189,66.002792 
	C89.340141,65.302094 90.941261,64.604362 92.542389,63.906635 
M95.120094,61.729939 
	C95.121262,65.725616 94.944969,69.733711 95.223160,73.710014 
	C95.316223,75.040131 96.569855,76.289047 97.292976,77.575081 
	C97.869881,77.350090 98.446785,77.125107 99.023689,76.900116 
	C99.023689,70.610161 99.075165,64.319153 98.946930,58.031815 
	C98.933578,57.377354 97.852753,56.232571 97.270485,56.234642 
	C96.581024,56.237091 95.594719,57.109840 95.285820,57.838123 
	C94.922829,58.693932 95.149246,59.799740 95.120094,61.729939 
M101.084145,73.211891 
	C101.757195,74.559250 102.430244,75.906609 103.103294,77.253960 
	C103.620735,77.021294 104.138184,76.788628 104.655624,76.555954 
	C104.655624,71.830704 104.655624,67.105461 104.655624,62.380207 
	C104.234894,62.163101 103.814163,61.945995 103.393425,61.728889 
	C102.625984,62.937912 101.402740,64.073036 101.192078,65.372322 
	C100.826088,67.629700 101.085785,69.988510 101.084145,73.211891 
M89.150635,69.134087 
	C89.150635,71.934631 89.150635,74.735176 89.150635,78.019928 
	C94.110863,76.470894 92.555855,73.213600 92.542908,70.837181 
	C92.538498,70.027199 90.629791,69.227585 89.150635,69.134087 
z"/>
<path fill="#F1F2F6" opacity="1.000000" stroke="none" 
	d="
M80.305321,107.469124 
	C80.236893,112.536209 80.168472,117.603302 79.313599,122.862930 
	C76.348282,123.038170 74.169395,123.020874 71.990517,123.003578 
	C71.698151,117.629089 71.405785,112.254608 71.362823,106.240509 
	C71.702896,105.085190 71.793556,104.569481 71.965729,103.760315 
	C72.640678,102.991646 73.234108,102.516441 73.909111,102.500664 
	C74.011063,106.120735 73.940048,109.285416 74.079178,112.440834 
	C74.202499,115.237617 74.559402,118.024101 74.813194,120.815132 
	C75.323982,120.801506 75.834770,120.787888 76.345558,120.774261 
	C76.700890,120.269539 77.355568,119.770828 77.365845,119.259171 
	C77.486092,113.276321 77.614105,107.288162 77.421219,101.311691 
	C77.398033,100.593140 75.496468,99.935211 74.062996,99.206345 
	C70.205826,98.971596 70.041199,101.430191 69.682220,104.025726 
	C69.279984,104.393272 69.077873,104.629517 68.691299,104.664482 
	C68.338936,103.664780 68.190681,102.883156 68.133858,101.777985 
	C68.145149,100.731682 68.064995,100.008926 67.984848,99.286163 
	C67.560410,100.198090 67.135979,101.110016 66.321335,102.032043 
	C64.630768,102.026352 63.330425,102.010559 62.030079,101.994766 
	C61.994247,101.824028 61.958420,101.653290 62.398220,101.168449 
	C64.429794,97.285225 61.467518,98.088371 59.938908,98.071854 
	C49.966789,97.964035 39.993099,98.002098 30.019920,97.992455 
	C29.822472,96.601265 29.625023,95.210068 30.005348,93.409378 
	C31.417582,93.011406 32.252041,93.022942 33.054214,93.458038 
	C34.050831,94.581932 35.077164,95.889549 36.109009,95.893906 
	C62.649555,96.006081 89.190834,96.012604 115.731094,95.870079 
	C116.779945,95.864456 117.819954,94.213509 118.930511,92.935867 
	C119.052521,92.282509 119.108093,92.022453 119.512764,91.937302 
	C120.372116,94.190262 120.882378,96.268311 121.392639,98.346359 
	C121.392639,98.346359 121.331680,98.330070 120.851242,98.248077 
	C110.831558,98.116272 101.290100,97.944626 91.754929,98.118179 
	C89.819954,98.153397 87.908676,99.490799 85.683426,100.049110 
	C84.103973,99.766174 82.827568,99.662003 81.551163,99.557831 
	C81.810471,100.257660 82.069786,100.957497 82.099174,101.996017 
	C81.347939,104.046181 80.826630,105.757652 80.305321,107.469124 
z"/>
<path fill="#203D74" opacity="1.000000" stroke="none" 
	d="
M38.224266,58.930565 
	C39.089249,72.221565 42.900639,77.377922 54.691563,81.038841 
	C55.359051,84.210304 55.742256,86.789185 55.750229,89.548080 
	C48.889870,89.592316 42.404747,89.456551 35.918285,88.831413 
	C35.904430,80.422989 36.029869,72.498993 35.747299,64.589584 
	C35.698658,63.228058 33.915081,61.928516 32.932922,60.600346 
	C32.473282,59.726799 31.702642,58.879196 31.627108,57.973614 
	C31.514627,56.625122 31.647800,55.128307 32.179291,53.914860 
	C32.401733,53.406990 34.387478,52.994896 34.743702,53.355972 
	C35.620327,54.244526 35.994041,55.618904 36.615124,56.773643 
	C37.007538,57.503239 37.481148,58.189159 38.224266,58.930565 
z"/>
<path fill="#C5CCDB" opacity="1.000000" stroke="none" 
	d="
M80.624725,107.247437 
	C80.826630,105.757652 81.347939,104.046181 82.403168,102.147446 
	C87.128807,108.246452 91.320526,114.532730 95.512245,120.819000 
	C95.945244,120.533829 96.378242,120.248650 96.811249,119.963478 
	C93.202988,113.384949 89.594727,106.806412 85.986473,100.227882 
	C87.908676,99.490799 89.819954,98.153397 91.754929,98.118179 
	C101.290100,97.944626 110.831558,98.116272 120.852692,98.279587 
	C117.940628,98.695221 114.550415,99.193611 111.151917,99.258614 
	C104.082535,99.393829 97.008766,99.299477 88.466080,99.299477 
	C91.379379,104.046745 93.572182,107.638840 95.784988,111.218575 
	C97.093353,113.335175 98.692780,115.318794 99.678513,117.573296 
	C100.492737,119.435570 101.508507,122.050385 100.788467,123.531059 
	C99.878456,125.402374 93.512215,124.025497 92.072037,121.839294 
	C89.243690,117.545891 86.621811,113.115616 83.755424,108.848854 
	C83.182716,107.996353 81.899643,107.621071 80.624725,107.247437 
z"/>
<path fill="#FAFBFC" opacity="1.000000" stroke="none" 
	d="
M35.919624,89.320778 
	C42.404747,89.456551 48.889870,89.592316 56.109577,89.698547 
	C57.858669,89.561348 58.873177,89.453690 60.264938,89.524368 
	C67.422691,89.737190 74.203804,89.845062 80.983566,89.789345 
	C91.712738,89.701180 102.441017,89.503441 113.333771,89.472969 
	C113.497879,89.593872 113.828300,89.355103 114.052658,89.538422 
	C114.462318,89.776207 114.647636,89.830666 115.207626,89.954323 
	C116.776100,90.603142 117.969887,91.182770 119.163673,91.762390 
	C119.108093,92.022453 119.052521,92.282509 118.479431,92.836792 
	C89.670105,93.098839 61.378300,93.066650 33.086498,93.034470 
	C32.252041,93.022942 31.417582,93.011406 30.165749,93.008133 
	C30.147631,92.004524 30.546886,90.992661 31.657707,89.884171 
	C33.552723,89.631966 34.736172,89.476372 35.919624,89.320778 
z"/>
<path fill="#D4D9E4" opacity="1.000000" stroke="none" 
	d="
M68.042419,102.101532 
	C68.190681,102.883156 68.338936,103.664780 68.725632,104.977486 
	C68.995064,105.715721 69.026054,105.922874 69.057045,106.130020 
	C68.037628,107.911438 67.018211,109.692856 65.486794,111.848923 
	C64.692070,112.912155 64.409355,113.600731 64.126633,114.289307 
	C63.122475,115.995094 61.738995,117.586853 61.185486,119.428108 
	C59.541676,124.896240 54.574993,122.397003 51.235256,123.717377 
	C51.182564,123.738197 49.624584,121.297241 49.964371,120.757210 
	C53.406994,115.285828 57.098843,109.971260 61.061275,104.126030 
	C61.577595,103.340027 61.753422,103.040695 61.929249,102.741364 
	C61.929249,102.741364 61.881466,102.354797 61.955772,102.174782 
	C63.330425,102.010559 64.630768,102.026352 66.650620,102.109207 
	C67.594231,102.151360 67.818321,102.126450 68.042419,102.101532 
z"/>
<path fill="#C5CCDB" opacity="1.000000" stroke="none" 
	d="
M119.512764,91.937302 
	C117.969887,91.182770 116.776100,90.603142 115.225197,89.635315 
	C114.874184,88.829605 114.880287,88.412102 114.947800,87.670357 
	C114.937080,86.507004 114.864937,85.667900 114.817169,84.832657 
	C114.841530,84.836517 114.918381,84.791710 114.918381,84.791710 
	C114.973526,82.485245 114.846291,80.151382 115.186241,77.887688 
	C115.299797,77.131531 116.529083,76.249947 117.402878,76.024399 
	C117.840523,75.911438 118.985687,77.052505 119.172714,77.788574 
	C119.488792,79.032478 119.257645,80.407364 119.328262,81.723335 
	C119.497528,84.877487 118.708084,87.999001 121.652206,90.834961 
	C122.884033,92.021530 121.921242,95.486420 121.674438,98.130905 
	C120.882378,96.268311 120.372116,94.190262 119.512764,91.937302 
z"/>
<path fill="#C5CCDB" opacity="1.000000" stroke="none" 
	d="
M35.918285,88.831413 
	C34.736172,89.476372 33.552723,89.631966 32.001209,89.758652 
	C31.880150,83.146950 32.133602,76.564384 32.371124,69.981247 
	C32.472446,67.172890 32.540512,64.363342 32.778305,61.077339 
	C33.915081,61.928516 35.698658,63.228058 35.747299,64.589584 
	C36.029869,72.498993 35.904430,80.422989 35.918285,88.831413 
z"/>
<path fill="#C3CBD9" opacity="1.000000" stroke="none" 
	d="
M30.166538,98.346512 
	C39.993099,98.002098 49.966789,97.964035 59.938908,98.071854 
	C61.467518,98.088371 64.429794,97.285225 62.552002,100.956711 
	C60.538891,100.475662 58.865417,99.451767 57.153404,99.382660 
	C48.212040,99.021759 39.260899,98.903328 30.166538,98.346512 
z"/>
<path fill="#395384" opacity="1.000000" stroke="none" 
	d="
M114.581329,84.303940 
	C114.918381,84.791710 114.841530,84.836517 114.359734,84.835144 
	C113.582138,84.888329 113.286346,84.942879 112.687523,84.701187 
	C105.583496,84.245857 98.782494,84.086769 91.966797,83.443695 
	C91.883575,82.315125 91.815056,81.670547 91.746536,81.025970 
	C98.456146,80.868202 105.165756,80.710426 112.328781,80.583923 
	C113.269554,81.682190 113.756912,82.749184 114.581329,84.303940 
z"/>
<path fill="#395384" opacity="1.000000" stroke="none" 
	d="
M103.112961,58.056885 
	C102.108398,57.128357 101.100143,55.810417 99.602486,53.852753 
	C98.268585,53.852753 96.040642,53.852753 93.362778,53.818943 
	C95.561279,53.263290 98.267448,52.214848 100.827797,52.495720 
	C101.766113,52.598652 102.358871,55.851521 103.112961,58.056885 
z"/>
<path fill="#ABB6CA" opacity="1.000000" stroke="none" 
	d="
M32.089329,41.410133 
	C32.646923,42.326584 33.302235,43.669762 33.766911,45.075935 
	C34.249039,46.534916 34.546589,48.054886 35.258408,49.694180 
	C33.355289,51.837139 32.607513,51.756886 32.283791,49.194786 
	C31.978970,46.782288 32.144623,44.310337 32.089329,41.410133 
z"/>
<path fill="#395384" opacity="1.000000" stroke="none" 
	d="
M86.596222,66.100601 
	C86.582130,69.639778 86.201195,73.303040 85.411865,76.988998 
	C85.412109,73.416023 85.820740,69.820351 86.596222,66.100601 
z"/>
<path fill="#B9C3D4" opacity="1.000000" stroke="none" 
	d="
M120.247955,40.665421 
	C120.457832,38.310902 121.012550,35.959202 121.769279,33.307175 
	C121.511787,35.560646 121.052292,38.114449 120.247955,40.665421 
z"/>
<path fill="#C5CCDB" opacity="1.000000" stroke="none" 
	d="
M72.128326,123.306992 
	C74.169395,123.020874 76.348282,123.038170 78.987457,123.164810 
	C77.053879,123.386238 74.660011,123.498329 72.128326,123.306992 
z"/>
<path fill="#395384" opacity="1.000000" stroke="none" 
	d="
M92.170654,63.897446 
	C90.941261,64.604362 89.340141,65.302094 87.359772,65.983894 
	C88.586655,65.274734 90.192787,64.581490 92.170654,63.897446 
z"/>
<path fill="#395384" opacity="1.000000" stroke="none" 
	d="
M82.014420,43.634262 
	C81.233025,43.960388 80.479713,43.894157 79.335266,43.496971 
	C78.975014,42.398670 79.005890,41.631313 79.036766,40.863960 
	C79.777924,40.779900 80.519081,40.695835 81.613510,40.747581 
	C81.992020,41.669563 82.017265,42.455730 82.014420,43.634262 
z"/>
<path fill="#C5CCDB" opacity="1.000000" stroke="none" 
	d="
M69.416885,106.020264 
	C69.026054,105.922874 68.995064,105.715721 68.929741,105.195564 
	C69.077873,104.629517 69.279984,104.393272 70.020782,104.055077 
	C70.987968,103.975479 71.436089,104.014633 71.884216,104.053780 
	C71.793556,104.569481 71.702896,105.085190 71.409477,105.773323 
	C70.730057,105.934006 70.253395,105.922264 69.416885,106.020264 
z"/>
<path fill="#1B3871" opacity="1.000000" stroke="none" 
	d="
M55.056984,40.837975 
	C55.061840,41.808136 54.661167,42.664135 53.716637,43.517136 
	C53.127056,42.950729 53.081337,42.387318 53.018284,41.400284 
	C53.551117,40.892376 54.101284,40.808094 55.056984,40.837975 
z"/>
<path fill="#C5CCDB" opacity="1.000000" stroke="none" 
	d="
M64.366882,114.135284 
	C64.409355,113.600731 64.692070,112.912155 65.235413,112.091919 
	C65.199730,112.633934 64.903427,113.307602 64.366882,114.135284 
z"/>
<path fill="#F1F2F6" opacity="1.000000" stroke="none" 
	d="
M61.660233,102.870461 
	C61.753422,103.040695 61.577595,103.340027 61.211018,103.816109 
	C61.143913,103.661758 61.267563,103.330658 61.660233,102.870461 
z"/>
<path fill="#1B3871" opacity="1.000000" stroke="none" 
	d="
M78.572105,40.779430 
	C79.005890,41.631313 78.975014,42.398670 78.957672,43.549911 
	C78.926521,54.868488 78.860191,65.803207 78.870430,76.737846 
	C78.871460,77.838280 79.335861,78.938293 79.840950,80.755447 
	C80.111046,86.489380 83.908508,84.997688 86.425049,84.801445 
	C89.728378,84.543854 87.894554,82.477119 87.262512,80.975723 
	C88.466064,80.922989 89.669609,80.870247 91.309845,80.921738 
	C91.815056,81.670547 91.883575,82.315125 91.739807,83.605034 
	C90.253571,87.598885 92.883598,86.911827 94.467728,86.924690 
	C100.622818,86.974655 106.779045,86.885284 113.126038,87.067749 
	C113.840286,87.523361 114.363335,87.758980 114.886383,87.994598 
	C114.880287,88.412102 114.874184,88.829605 114.850525,89.566116 
	C114.647636,89.830666 114.462318,89.776207 113.970352,89.529694 
	C113.663696,89.337631 113.169670,89.352066 113.169670,89.352066 
	C102.441017,89.503441 91.712738,89.701180 80.983566,89.789345 
	C74.203804,89.845062 67.422691,89.737190 60.339157,89.183723 
	C60.409370,88.090111 60.782616,87.515480 61.495350,86.912613 
	C62.195324,85.970345 62.555813,85.056297 62.918060,83.723877 
	C62.942905,82.190155 62.965992,81.074806 62.989075,79.959457 
	C67.940498,77.879799 72.012695,74.827011 74.729736,69.260880 
	C78.341354,62.037453 77.251656,55.409714 72.257896,50.929813 
	C68.645721,48.554302 65.016754,46.203709 61.431805,43.787785 
	C60.383553,43.081356 59.460613,42.188976 59.012962,41.171993 
	C65.732941,40.873070 71.920189,40.783985 78.572105,40.779430 
z"/>
<path fill="#445D8B" opacity="1.000000" stroke="none" 
	d="
M34.448425,37.275032 
	C33.751514,36.299061 33.506149,35.371387 33.260784,34.443714 
	C34.581417,34.334503 35.901974,34.131020 37.222691,34.130020 
	C62.835945,34.110676 88.449265,34.096687 114.062393,34.157146 
	C115.704697,34.161022 117.345558,34.778408 118.987083,35.110394 
	C118.895905,35.848038 118.804718,36.585682 118.713531,37.323326 
	C90.775681,37.323326 62.837822,37.323326 34.448425,37.275032 
z"/>
<path fill="#234077" opacity="1.000000" stroke="none" 
	d="
M57.854019,77.951508 
	C48.780685,77.357864 42.647259,71.890701 41.281082,63.557392 
	C40.537647,59.022659 42.060032,57.621876 46.278606,59.151031 
	C54.330273,62.069614 61.271679,66.494972 66.597740,74.706680 
	C63.532856,75.900490 60.904030,76.924446 57.854019,77.951508 
z"/>
<path fill="#264278" opacity="1.000000" stroke="none" 
	d="
M45.820831,55.584248 
	C45.790703,54.080608 45.627529,52.334579 46.422371,51.435303 
	C51.154427,46.081474 59.598804,45.434319 66.563362,50.271919 
	C63.540371,53.335361 60.763527,56.500584 57.559006,59.148159 
	C56.764496,59.804585 54.522270,58.972164 53.054913,58.490696 
	C50.698818,57.717598 48.433899,56.666641 45.820831,55.584248 
z"/>
<path fill="#264278" opacity="1.000000" stroke="none" 
	d="
M67.294006,69.695572 
	C59.197002,61.621067 59.193378,61.617016 67.501244,54.179245 
	C67.961403,53.767277 68.561989,53.512157 69.068558,53.201588 
	C73.477852,58.439972 74.135689,63.728718 70.843605,68.907906 
	C70.372002,69.649857 68.676262,69.613701 67.294006,69.695572 
z"/>
<path fill="#15336D" opacity="1.000000" stroke="none" 
	d="
M61.155865,86.940842 
	C60.782616,87.515480 60.409370,88.090111 59.961906,89.005386 
	C58.873177,89.453690 57.858669,89.561348 56.484810,89.518539 
	C55.742256,86.789185 55.359051,84.210304 54.981834,81.256226 
	C56.052025,80.837616 57.116230,80.794205 58.704266,81.112198 
	C59.869015,82.327110 60.509933,83.180611 60.977970,84.404839 
	C60.922016,85.497322 61.038940,86.219086 61.155865,86.940842 
z"/>
<path fill="#445D8B" opacity="1.000000" stroke="none" 
	d="
M72.216225,51.308926 
	C77.251656,55.409714 78.341354,62.037453 74.899200,68.940125 
	C75.328529,63.098835 75.520195,57.146431 72.216225,51.308926 
z"/>
<path fill="#395384" opacity="1.000000" stroke="none" 
	d="
M61.150848,84.034111 
	C60.509933,83.180611 59.869015,82.327110 59.100082,81.176376 
	C60.076431,80.556938 61.180798,80.234718 62.637123,79.935974 
	C62.965992,81.074806 62.942905,82.190155 62.625916,83.680389 
	C61.938290,84.048218 61.544571,84.041168 61.150848,84.034111 
z"/>
<path fill="#405988" opacity="1.000000" stroke="none" 
	d="
M95.120071,61.263535 
	C95.149246,59.799740 94.922829,58.693932 95.285820,57.838123 
	C95.594719,57.109840 96.581024,56.237091 97.270485,56.234642 
	C97.852753,56.232571 98.933578,57.377354 98.946930,58.031815 
	C99.075165,64.319153 99.023689,70.610161 99.023689,76.900116 
	C98.446785,77.125107 97.869881,77.350090 97.292976,77.575081 
	C96.569855,76.289047 95.316223,75.040131 95.223160,73.710014 
	C94.944969,69.733711 95.121262,65.725616 95.120071,61.263535 
z"/>
<path fill="#405988" opacity="1.000000" stroke="none" 
	d="
M101.083633,72.758347 
	C101.085785,69.988510 100.826088,67.629700 101.192078,65.372322 
	C101.402740,64.073036 102.625984,62.937912 103.393425,61.728889 
	C103.814163,61.945995 104.234894,62.163101 104.655624,62.380207 
	C104.655624,67.105461 104.655624,71.830704 104.655624,76.555954 
	C104.138184,76.788628 103.620735,77.021294 103.103294,77.253960 
	C102.430244,75.906609 101.757195,74.559250 101.083633,72.758347 
z"/>
<path fill="#395384" opacity="1.000000" stroke="none" 
	d="
M89.370911,68.778656 
	C90.629791,69.227585 92.538498,70.027199 92.542908,70.837181 
	C92.555855,73.213600 94.110863,76.470894 89.150635,78.019928 
	C89.150635,74.735176 89.150635,71.934631 89.370911,68.778656 
z"/>
<path fill="#395384" opacity="1.000000" stroke="none" 
	d="
M86.971985,80.816422 
	C87.894554,82.477119 89.728378,84.543854 86.425049,84.801445 
	C83.908508,84.997688 80.111046,86.489380 80.125626,81.044327 
	C82.330200,80.629868 84.505829,80.643486 86.971985,80.816422 
z"/>
<path fill="#1B3871" opacity="1.000000" stroke="none" 
	d="
M33.054214,93.458031 
	C61.378300,93.066650 89.670105,93.098839 118.412994,93.230103 
	C117.819954,94.213509 116.779945,95.864456 115.731094,95.870079 
	C89.190834,96.012604 62.649555,96.006081 36.109009,95.893906 
	C35.077164,95.889549 34.050831,94.581932 33.054214,93.458031 
z"/>
<path fill="#445D8B" opacity="1.000000" stroke="none" 
	d="
M74.465508,99.249191 
	C75.496468,99.935211 77.398033,100.593140 77.421219,101.311691 
	C77.614105,107.288162 77.486092,113.276321 77.365845,119.259171 
	C77.355568,119.770828 76.700890,120.269539 76.345558,120.774261 
	C75.834770,120.787888 75.323982,120.801506 74.813194,120.815132 
	C74.559402,118.024101 74.202499,115.237617 74.079178,112.440834 
	C73.940048,109.285416 74.011063,106.120735 74.052917,102.170044 
	C74.231949,100.669739 74.348724,99.959465 74.465508,99.249191 
z"/>
<path fill="#667AA0" opacity="1.000000" stroke="none" 
	d="
M85.683426,100.049110 
	C89.594727,106.806412 93.202988,113.384949 96.811249,119.963478 
	C96.378242,120.248650 95.945244,120.533829 95.512245,120.819000 
	C91.320526,114.532730 87.128807,108.246452 82.633095,101.808754 
	C82.069786,100.957497 81.810471,100.257660 81.551163,99.557831 
	C82.827568,99.662003 84.103973,99.766174 85.683426,100.049110 
z"/>
<path fill="#D4D9E4" opacity="1.000000" stroke="none" 
	d="
M74.062996,99.206345 
	C74.348724,99.959465 74.231949,100.669739 73.971359,101.710632 
	C73.234108,102.516441 72.640678,102.991646 71.965729,103.760315 
	C71.436089,104.014633 70.987968,103.975479 70.201279,103.906982 
	C70.041199,101.430191 70.205826,98.971596 74.062996,99.206345 
z"/>
<path fill="#667AA0" opacity="1.000000" stroke="none" 
	d="
M68.133858,101.777985 
	C67.818321,102.126450 67.594231,102.151360 67.040840,102.099098 
	C67.135979,101.110016 67.560410,100.198090 67.984848,99.286163 
	C68.064995,100.008926 68.145149,100.731682 68.133858,101.777985 
z"/>
<path fill="#15336D" opacity="1.000000" stroke="none" 
	d="
M113.333771,89.472969 
	C113.169670,89.352066 113.663696,89.337631 113.746002,89.346367 
	C113.828300,89.355103 113.497879,89.593872 113.333771,89.472969 
z"/>
<path fill="#15336D" opacity="1.000000" stroke="none" 
	d="
M114.947800,87.670357 
	C114.363335,87.758980 113.840286,87.523361 113.122131,86.758461 
	C112.948204,85.818604 112.969376,85.408012 112.990547,84.997429 
	C113.286346,84.942879 113.582138,84.888329 114.335373,84.831284 
	C114.864937,85.667900 114.937080,86.507004 114.947800,87.670357 
z"/>
<path fill="#C5CCDB" opacity="1.000000" stroke="none" 
	d="
M112.687523,84.701187 
	C112.969376,85.408012 112.948204,85.818604 112.930939,86.538483 
	C106.779045,86.885284 100.622818,86.974655 94.467728,86.924690 
	C92.883598,86.911827 90.253571,87.598885 91.754501,84.089035 
	C98.782494,84.086769 105.583496,84.245857 112.687523,84.701187 
z"/>
<path fill="#B9C3D4" opacity="1.000000" stroke="none" 
	d="
M60.977970,84.404839 
	C61.544571,84.041168 61.938290,84.048218 62.624153,84.098763 
	C62.555813,85.056297 62.195324,85.970345 61.495350,86.912613 
	C61.038940,86.219086 60.922016,85.497322 60.977970,84.404839 
z"/>
</svg>