<svg version="1.1" id="Layer_1" xmlns="http://www.w3.org/2000/svg" xmlns:xlink="http://www.w3.org/1999/xlink" x="0px" y="0px"
	 width="100%" viewBox="0 0 1024 1024" enable-background="new 0 0 1024 1024" xml:space="preserve">
<path fill="#000000" opacity="1.000000" stroke="none" 
	d="
M218.654236,455.999939 
	C218.655090,447.000427 218.788788,438.497955 218.595001,430.002930 
	C218.512634,426.391876 219.653961,425.042816 223.401505,424.933197 
	C237.334381,424.525543 237.320145,424.406677 237.321396,438.278534 
	C237.326675,496.441620 237.370682,554.604736 237.280930,612.767639 
	C237.274612,616.866394 238.048935,618.807190 242.752579,618.650330 
	C280.067841,617.406250 317.400482,618.057312 354.724945,618.011047 
	C493.549133,617.838806 632.373535,617.869507 771.197876,617.831177 
	C775.197388,617.830017 779.216736,617.674927 783.191101,618.012329 
	C787.642334,618.390259 788.928040,616.617126 788.897766,612.287354 
	C788.722839,587.290039 788.795410,562.291016 788.770996,537.292603 
	C788.763672,529.856323 788.744324,529.856323 796.120544,529.856201 
	C807.346497,529.856018 807.348877,529.856018 807.350037,540.875366 
	C807.352661,564.540588 807.351013,588.205750 807.354492,611.870972 
	C807.355469,618.626038 807.360840,618.626038 813.839600,618.660583 
	C829.348511,618.743286 829.348450,618.743286 829.348511,634.095337 
	C829.348511,646.094604 829.350342,658.093872 829.348145,670.093140 
	C829.346191,680.313538 828.329224,681.368835 818.315674,681.370056 
	C746.153442,681.378906 673.991272,681.380188 601.829041,681.383789 
	C600.018494,681.383850 598.207947,681.383789 595.980286,681.383789 
	C596.413513,685.111389 598.525696,687.556702 600.132568,690.109253 
	C628.266846,734.801147 656.454895,779.459290 684.709473,824.075195 
	C687.193665,827.997925 688.574158,831.952759 686.372192,836.234436 
	C684.080383,840.690674 679.795166,841.305847 675.224731,841.276489 
	C661.559448,841.188538 647.889404,841.043213 634.229370,841.321228 
	C628.695251,841.433838 625.324829,839.237305 622.459229,834.671326 
	C598.550842,796.575134 574.486694,758.576721 550.457275,720.556641 
	C549.497314,719.037781 548.413940,717.596985 547.258179,715.932861 
	C545.803284,717.887451 546.395996,719.767822 546.394592,721.500977 
	C546.365479,757.498657 546.399170,793.496399 546.383301,829.494080 
	C546.379578,838.052734 543.995605,840.364746 535.352234,840.378479 
	C524.019592,840.396484 512.686890,840.391357 501.354340,840.367615 
	C491.971527,840.347900 488.735382,837.184570 488.726532,827.840210 
	C488.691589,791.009155 488.700653,754.178101 488.693451,717.347046 
	C488.693115,715.578247 488.693390,713.809509 488.693390,710.857666 
	C477.483185,728.599426 466.932007,745.312988 456.365845,762.017090 
	C441.406342,785.666626 426.281830,809.214050 411.577240,833.020874 
	C407.867310,839.027222 403.270386,841.399841 396.416382,841.234863 
	C383.590637,840.926086 370.753326,841.103271 357.920898,841.063416 
	C353.451752,841.049561 349.225647,840.535706 346.806732,835.958008 
	C344.424011,831.448792 346.167755,827.654541 348.576721,823.833618 
	C377.006744,778.740356 405.409180,733.629822 433.810699,688.518616 
	C435.040131,686.565918 436.190063,684.563171 437.390350,682.561584 
	C435.288727,680.601562 433.011871,681.418823 430.982300,681.417419 
	C356.653595,681.364624 282.324860,681.373840 207.996109,681.367004 
	C198.010452,681.366089 196.673782,680.041809 196.668503,670.228760 
	C196.660980,656.229614 196.644562,642.230408 196.676605,628.231323 
	C196.693924,620.667542 198.668091,618.692505 206.040817,618.650085 
	C218.643524,618.577576 218.652954,618.577576 218.653900,605.985596 
	C218.657608,556.157043 218.654892,506.328491 218.654236,455.999939 
M724.500000,662.735901 
	C751.655884,662.781677 778.812439,662.747253 805.967102,662.955505 
	C810.296570,662.988647 812.015564,661.754395 811.699219,657.295593 
	C811.369751,652.653809 811.640137,647.970825 811.608398,643.306152 
	C811.561218,636.380066 811.546387,636.368896 804.408386,636.368713 
	C610.315735,636.363647 416.223022,636.361023 222.130356,636.358765 
	C221.130783,636.358765 220.130142,636.400208 219.131836,636.366943 
	C216.351959,636.274292 215.299133,637.663940 215.333237,640.361267 
	C215.411163,646.524536 215.420547,652.690613 215.318756,658.853271 
	C215.272598,661.646606 216.449692,662.812988 219.193375,662.691895 
	C221.188385,662.603821 223.190964,662.692871 225.190170,662.693054 
	C391.293457,662.707520 557.396729,662.721008 724.500000,662.735901 
M422.007141,782.564514 
	C443.150238,749.166626 464.293335,715.768677 486.067535,681.373840 
	C478.500427,681.373840 472.208954,681.631836 465.951233,681.283508 
	C461.741913,681.049194 459.262024,682.607239 457.068024,686.107483 
	C429.660431,729.833557 402.128326,773.481567 374.672028,817.177124 
	C373.771149,818.610840 372.128723,819.931946 373.154877,822.658752 
	C378.773956,822.658752 384.575653,822.405151 390.342896,822.741638 
	C394.692139,822.995300 397.392029,821.534302 399.693237,817.768433 
	C406.811249,806.120178 414.285767,794.689758 422.007141,782.564514 
M576.585266,727.976868 
	C582.776489,737.661194 588.977722,747.339050 595.156677,757.031128 
	C607.873840,776.978699 620.550659,796.952209 633.330444,816.859497 
	C634.712341,819.012146 635.535828,822.336548 638.561523,822.463074 
	C645.968506,822.772888 653.397217,822.564148 661.726440,822.564148 
	C658.761536,817.798462 656.349976,813.875000 653.893005,809.980225 
	C627.496704,768.138062 601.093933,726.299927 574.688049,684.463867 
	C573.825928,683.097900 573.312317,681.386475 571.161499,681.397583 
	C563.558838,681.436829 555.955872,681.412903 547.132019,681.412903 
	C557.229248,697.375488 566.714539,712.370789 576.585266,727.976868 
M507.269043,730.500000 
	C507.262939,759.324524 507.333069,788.149414 507.167694,816.973022 
	C507.143158,821.250427 508.236725,823.165588 512.760925,822.709045 
	C515.894836,822.392822 519.117188,822.365601 522.244812,822.710388 
	C527.307861,823.268494 528.790466,821.363770 528.761292,816.278381 
	C528.557861,780.790405 528.655518,745.300720 528.655518,709.811584 
	C528.655518,701.814026 528.569885,693.815308 528.688110,685.819580 
	C528.735107,682.640442 527.572510,681.234436 524.310913,681.354187 
	C520.317627,681.500732 516.299988,681.594482 512.319946,681.319641 
	C508.324097,681.043762 507.136169,682.635254 507.184784,686.514038 
	C507.364319,700.840759 507.264832,715.171082 507.269043,730.500000 
z"/>
<path fill="#000000" opacity="1.000000" stroke="none" 
	d="
M478.999878,288.387268 
	C400.685272,288.386719 322.870697,288.385406 245.056137,288.386292 
	C237.317780,288.386383 237.313202,288.392761 237.312897,296.341064 
	C237.312088,316.836121 237.315781,337.331146 237.317596,357.826202 
	C237.317780,359.802032 237.317596,361.777863 237.317596,364.586060 
	C231.612991,364.586060 226.348099,364.707001 221.092377,364.539825 
	C218.031906,364.442474 218.694321,361.838501 218.684998,359.980042 
	C218.629913,348.982971 218.657318,337.985474 218.657410,326.988129 
	C218.657501,316.490662 218.667770,305.993195 218.654984,295.495728 
	C218.647064,288.980408 218.629822,288.979980 211.876358,288.955719 
	C209.377304,288.946747 206.866852,289.078796 204.381607,288.887115 
	C199.262161,288.492279 196.754547,286.011169 196.723145,280.902313 
	C196.622787,264.573578 196.616333,248.243393 196.720093,231.914703 
	C196.756317,226.215454 199.540421,223.834747 205.759827,223.815811 
	C224.088531,223.760010 242.417450,223.744675 260.746277,223.745407 
	C446.201447,223.752853 631.656616,223.766373 817.111755,223.783218 
	C818.943604,223.783386 820.786987,223.733658 822.605103,223.910706 
	C827.082458,224.346664 829.431091,226.568161 829.395996,231.396744 
	C829.274963,248.058304 829.396606,264.721497 829.324036,281.383606 
	C829.301453,286.554321 827.510193,288.261993 822.418213,288.375183 
	C818.754333,288.456635 815.085266,288.464813 811.421936,288.371338 
	C808.420715,288.294739 807.155212,289.640381 807.340698,292.599792 
	C807.444702,294.259277 807.348267,295.931061 807.348267,297.597321 
	C807.347351,365.747559 807.348572,433.897797 807.344788,502.048035 
	C807.344421,509.142303 807.330505,509.213928 800.240662,509.151764 
	C786.935059,509.035126 788.740845,510.605225 788.729736,497.822449 
	C788.671448,430.672028 788.689514,363.521545 788.677734,296.371063 
	C788.676392,288.707184 788.612976,288.485718 780.926147,288.461151 
	C753.099854,288.372162 725.273132,288.395447 697.446594,288.392914 
	C624.797668,288.386261 552.148804,288.388428 478.999878,288.387268 
M720.500000,269.693573 
	C748.658081,269.694336 776.816589,269.621155 804.973816,269.774384 
	C809.271423,269.797760 811.060852,268.582794 810.745850,264.111145 
	C810.430481,259.634857 810.688904,255.118683 810.682190,250.620010 
	C810.671204,243.273102 810.666504,243.271896 803.320251,243.271866 
	C622.206421,243.271057 441.092560,243.270691 259.978699,243.269577 
	C246.649277,243.269501 233.319138,243.338776 219.990921,243.210251 
	C216.577103,243.177338 215.147293,244.304825 215.301788,247.826019 
	C215.506088,252.482269 215.346298,257.154388 215.347397,261.819702 
	C215.349243,269.672668 215.350693,269.683838 223.144653,269.684052 
	C388.596436,269.688751 554.048218,269.690765 720.500000,269.693573 
z"/>
<path fill="#000000" opacity="1.000000" stroke="none" 
	d="
M498.699646,363.366089 
	C512.911011,383.777435 520.697327,405.942139 522.471619,430.516205 
	C526.829956,490.880402 488.362335,541.295654 435.256042,559.378052 
	C365.589661,583.099121 288.906738,540.859985 271.100281,468.742035 
	C254.282349,400.627655 296.439972,329.952148 364.870605,315.361664 
	C418.311890,303.967163 463.847748,319.444000 498.699646,363.366089 
M315.931519,421.708466 
	C307.306580,418.916473 299.065704,414.927002 290.185272,412.934052 
	C278.573059,448.950958 291.668304,505.573730 341.389923,533.891907 
	C385.695160,559.125305 437.765594,547.128723 463.988190,521.601318 
	C463.344025,520.876465 462.728119,520.110352 462.038361,519.417786 
	C439.944885,497.236450 417.816284,475.089935 395.779877,452.852051 
	C392.998383,450.045044 389.885223,448.139832 386.191803,446.831055 
	C362.992676,438.610565 339.828278,430.292084 315.931519,421.708466 
M430.513733,395.014496 
	C442.743958,382.605713 454.974182,370.196930 467.302063,357.689056 
	C466.491394,356.826630 466.094757,356.293488 465.594452,355.888397 
	C444.398163,338.727142 420.413483,329.478058 392.885834,330.147919 
	C350.006836,331.191437 319.123047,351.587799 298.538116,388.569611 
	C295.373718,394.254669 295.540161,394.355103 301.499573,396.525818 
	C331.353180,407.399841 361.230988,418.208313 391.029694,429.230713 
	C394.265533,430.427612 396.139709,429.814941 398.399048,427.493073 
	C408.852142,416.750702 419.462799,406.161621 430.513733,395.014496 
M436.761139,414.260345 
	C427.890289,423.156250 419.019470,432.052155 408.889282,442.210999 
	C431.457275,464.256104 453.372498,485.642303 475.246490,507.070587 
	C477.030579,508.818329 478.397034,508.501282 479.804840,506.775574 
	C480.752136,505.614441 481.718262,504.465912 482.611481,503.263855 
	C510.996368,465.064636 511.083893,412.628723 482.828064,374.258392 
	C482.058685,373.213593 481.477478,371.915771 479.325500,371.694702 
	C465.475403,385.543671 451.367126,399.650818 436.761139,414.260345 
z"/>
<path fill="#000000" opacity="1.000000" stroke="none" 
	d="
M711.999817,408.661377 
	C718.948059,408.661102 725.396423,408.661102 731.369873,408.661102 
	C732.831177,410.698730 732.370911,412.240601 732.371887,413.698181 
	C732.396851,452.190460 732.481079,490.683044 732.311340,529.174561 
	C732.289429,534.130615 733.580444,536.087769 738.759705,535.755371 
	C745.065552,535.350647 751.419739,535.764160 757.748657,535.626160 
	C760.999573,535.555237 762.179688,536.911804 762.149902,540.072998 
	C761.987427,557.299377 764.295654,554.171143 749.011902,554.202148 
	C684.691650,554.332397 620.371094,554.260620 556.050598,554.257629 
	C548.744385,554.257324 548.735291,554.242371 548.735046,546.762329 
	C548.732849,471.943970 548.732605,397.125610 548.736389,322.307251 
	C548.736755,315.681061 548.752075,315.681091 555.282471,315.651611 
	C567.349304,315.597168 567.347839,315.597168 567.347778,327.815918 
	C567.347473,394.635895 567.347229,461.455902 567.348816,528.275879 
	C567.348999,535.664795 567.354431,535.664795 574.611633,535.667786 
	C584.518738,535.671814 584.577698,535.671692 584.556763,525.878479 
	C584.511841,504.885925 584.491516,483.892334 584.234131,462.901978 
	C584.185425,458.932251 585.920410,458.041748 589.302490,458.056854 
	C600.633179,458.107330 611.970459,457.837616 623.292236,458.154572 
	C627.452759,458.270996 628.595581,456.628204 628.583191,453.008545 
	C628.523254,435.531799 628.497986,418.054932 628.472595,400.578094 
	C628.459045,391.265442 628.470276,381.952728 628.470276,373.023193 
	C630.195557,371.199188 631.961121,371.677002 633.557678,371.673370 
	C649.554382,371.636871 665.552979,371.783752 681.546875,371.568085 
	C685.890686,371.509552 687.459045,372.827972 687.327698,377.239716 
	C687.064941,386.063293 687.385193,394.903198 687.196350,403.730591 
	C687.118958,407.346069 688.203064,408.850281 692.008362,408.713715 
	C698.497803,408.480804 705.001953,408.657196 711.999817,408.661377 
M667.774048,477.500000 
	C667.783386,451.859528 667.794495,426.219025 667.801147,400.578552 
	C667.804077,389.366730 667.799988,389.366760 656.345337,389.369629 
	C655.346375,389.369904 654.328857,389.493439 653.351501,389.348053 
	C648.268921,388.591858 646.770874,390.784088 646.813904,395.786438 
	C647.026062,420.425995 646.910156,445.068329 646.918213,469.709686 
	C646.924866,489.855652 647.005310,510.001923 646.902466,530.147339 
	C646.882446,534.072998 647.927368,536.102844 652.274902,535.712524 
	C655.578186,535.416016 658.954651,535.396057 662.253296,535.717590 
	C666.803162,536.161011 667.893921,534.177307 667.847839,529.946533 
	C667.661133,512.799500 667.771912,495.649139 667.774048,477.500000 
M708.245667,535.658752 
	C711.706177,535.788147 714.759338,536.080505 714.731934,530.800781 
	C714.560852,497.859314 714.609192,464.916473 714.694824,431.974365 
	C714.704773,428.147888 713.160461,426.405426 709.442017,426.406067 
	C703.619080,426.407043 697.795593,426.458405 691.973328,426.397217 
	C688.593262,426.361694 687.246826,427.930420 687.250549,431.273346 
	C687.287598,464.714600 687.278503,498.155945 687.213684,531.597168 
	C687.207886,534.587585 688.325073,535.777405 691.334839,535.697815 
	C696.655090,535.557007 701.981812,535.658508 708.245667,535.658752 
M628.569153,503.457947 
	C628.575378,496.303223 628.535034,489.148071 628.607300,481.993988 
	C628.644104,478.351685 627.193115,476.315033 623.346191,476.337616 
	C618.022095,476.368896 612.696899,476.392883 607.373657,476.318787 
	C604.369995,476.276978 603.275696,477.689178 603.284912,480.596222 
	C603.338562,497.567688 603.362610,514.539795 603.256165,531.510742 
	C603.234802,534.919128 604.767700,535.781982 607.826477,535.691650 
	C612.813843,535.544250 617.822021,535.427551 622.796387,535.721985 
	C627.255676,535.985901 628.698792,534.045471 628.626404,529.868896 
	C628.479675,521.394897 628.574402,512.916809 628.569153,503.457947 
z"/>
<path fill="#000000" opacity="1.000000" stroke="none" 
	d="
M685.000000,579.841064 
	C708.970642,579.846252 732.442078,579.957764 755.911133,579.770386 
	C760.651978,579.732605 762.306824,581.179077 762.265808,586.007629 
	C762.160950,598.340210 762.357422,598.348694 749.851807,598.349243 
	C709.568848,598.351135 669.285889,598.353638 629.002930,598.340393 
	C621.754028,598.338013 621.686768,598.303833 621.728210,591.298950 
	C621.806702,578.051941 620.107605,579.973022 633.064392,579.881714 
	C650.208862,579.760803 667.354736,579.845642 685.000000,579.841064 
z"/>
<path fill="#000000" opacity="1.000000" stroke="none" 
	d="
M558.043701,598.344360 
	C548.202637,598.237427 548.690613,599.546875 548.739746,589.474426 
	C548.792175,578.720337 547.690613,579.918640 558.356140,579.876160 
	C570.977295,579.825867 583.600586,579.962952 596.219055,579.767273 
	C600.352234,579.703186 602.168518,580.769226 602.166138,585.322937 
	C602.159241,598.321472 602.336914,598.325195 589.426697,598.336792 
	C579.130310,598.346008 568.833923,598.345276 558.043701,598.344360 
z"/>
<path fill="#000000" opacity="1.000000" stroke="none" 
	d="
M350.914551,595.738892 
	C350.948975,582.583618 350.948975,582.583618 363.575653,582.668945 
	C370.032135,582.712585 370.032135,582.712585 370.030396,589.350464 
	C370.027313,601.165405 370.027130,601.184204 358.012787,601.065002 
	C354.609009,601.031189 350.487030,601.901245 350.914551,595.738892 
z"/>
<path fill="#000000" opacity="1.000000" stroke="none" 
	d="
M218.651611,394.021606 
	C218.684402,385.652100 218.684402,385.652100 226.439331,385.652802 
	C237.343323,385.653809 237.343307,385.653809 237.322388,396.433685 
	C237.307083,404.320679 237.307098,404.320709 229.521942,404.324829 
	C229.189209,404.325012 228.856445,404.328186 228.523758,404.323669 
	C217.334839,404.171661 218.798981,405.627930 218.651611,394.021606 
z"/>
<path fill="#000000" opacity="1.000000" stroke="none" 
	d="
M295.519196,600.179688 
	C293.906006,598.623535 294.968079,597.605164 295.712830,596.516968 
	C296.609528,595.206848 298.317657,593.945374 296.718109,592.202942 
	C295.573395,590.955933 293.945007,590.150330 292.206055,590.846985 
	C290.168732,591.663330 289.074554,593.287537 289.324524,595.570129 
	C289.413910,596.386108 289.735748,597.175049 289.928101,597.981873 
	C290.349579,599.749573 289.259125,600.430603 287.821381,600.699768 
	C286.308075,600.982971 284.955994,600.412781 284.913422,598.797302 
	C284.790924,594.148743 284.783630,589.488770 284.983490,584.844116 
	C285.067566,582.891296 286.905304,582.815430 288.426331,582.789917 
	C292.085114,582.728455 295.748779,582.815125 299.402924,582.662109 
	C302.514954,582.531738 303.495575,584.045166 303.359680,586.906372 
	C303.241455,589.395752 303.353302,591.895569 303.346252,594.390808 
	C303.326538,601.381348 302.926819,601.696167 295.519196,600.179688 
z"/>
<path fill="#000000" opacity="1.000000" stroke="none" 
	d="
M434.703217,600.552979 
	C430.035248,600.568115 425.800262,599.510986 421.481384,600.735535 
	C419.173920,601.389893 417.575836,600.363220 417.691376,597.648987 
	C417.774780,595.690430 417.879822,593.732849 417.982544,591.624390 
	C420.522156,592.132202 420.096313,594.269287 420.910950,595.525635 
	C422.444427,597.890686 424.773163,598.762329 427.288666,598.656006 
	C429.649353,598.556213 431.060059,596.725342 431.791351,594.549988 
	C432.695282,591.861084 433.325104,589.131165 432.651123,586.252991 
	C432.345459,584.947693 432.059845,583.384644 433.960480,583.135132 
	C435.835175,582.889099 436.192047,584.454956 436.016083,585.785889 
	C435.374603,590.637268 437.481201,595.657471 434.703217,600.552979 
z"/>
</svg>