<?xml version="1.0" standalone="no"?>
<!DOCTYPE svg PUBLIC "-//W3C//DTD SVG 20010904//EN"
 "http://www.w3.org/TR/2001/REC-SVG-20010904/DTD/svg10.dtd">
<svg version="1.0" xmlns="http://www.w3.org/2000/svg"
 width="1024.000000pt" height="1024.000000pt" viewBox="0 0 1024.000000 1024.000000"
 preserveAspectRatio="xMidYMid meet">
<metadata>
Created by potrace 1.16, written by Peter Selinger 2001-2019
</metadata>
<g transform="translate(0.000000,1024.000000) scale(0.100000,-0.100000)"
fill="#000000" stroke="none">
<path d="M6155 8875 c-687 -97 -1243 -497 -1540 -1110 -340 -700 -247 -1524
240 -2135 l53 -67 -164 -164 -164 -164 -68 68 -67 67 -811 -813 c-895 -897
-849 -843 -861 -988 -25 -302 296 -531 561 -400 53 26 164 133 866 835 l805
806 -65 65 -65 65 170 169 170 169 120 -80 c263 -175 557 -283 874 -319 133
-15 435 -6 554 16 699 129 1267 586 1530 1230 149 364 186 799 101 1185 -88
396 -281 742 -570 1020 -295 283 -660 465 -1074 536 -133 22 -465 27 -595 9z
m430 -435 c392 -45 725 -210 988 -491 198 -210 339 -490 394 -779 27 -146 25
-439 -5 -587 -114 -569 -522 -1024 -1074 -1198 -211 -67 -502 -84 -733 -45
-570 98 -1041 514 -1218 1076 -55 175 -71 283 -71 484 0 142 4 196 22 287 42
210 121 400 243 583 84 127 282 325 408 409 316 210 686 302 1046 261z"/>
<path d="M6335 8209 c-329 -34 -594 -157 -816 -379 -158 -157 -260 -315 -334
-514 -56 -153 -76 -252 -82 -422 -7 -177 4 -270 50 -434 l32 -115 6 160 c7
173 17 236 56 360 68 217 238 489 443 708 241 257 550 438 861 505 132 29 300
45 394 39 l80 -5 -42 19 c-60 28 -215 67 -313 79 -96 11 -218 11 -335 -1z"/>
</g>
</svg>
