<?xml version='1.0' encoding='utf-8'?>
<svg xmlns="http://www.w3.org/2000/svg" width="995.000000pt" height="410.000000pt" viewBox="0 0 995.000000 410.000000"><rect width="100%" height="100%" fill="#FFFFFF" /><path d="M0 2050 l0 -2050 4975 0 4975 0 0 2050 0 2050 -4975 0 -4975 0 0 -2050z m5755 1296 c190 -52 376 -188 483 -355 160 -247 176 -577 41 -831 -84 -157 -210 -279 -373 -360 -135 -66 -210 -84 -366 -84 -180 0 -331 45 -462 140 l-51 36 -68 -68 -69 -68 25 -26 c14 -14 25 -30 25 -36 0 -5 -152 -161 -337 -346 -341 -340 -375 -368 -442 -368 -88 0 -171 82 -171 170 0 69 27 101 368 443 185 185 341 337 346 337 6 0 22 -11 36 -25 l26 -25 67 68 66 67 -49 75 c-94 140 -133 278 -134 465 0 144 21 233 90 365 115 224 326 384 573 436 85 17 294 12 376 -10z" fill="#063471" stroke="none" /><path d="M5415 3186 c-209 -48 -371 -175 -460 -361 -55 -113 -69 -186 -63 -318 8 -171 68 -307 189 -427 143 -142 331 -209 533 -188 276 27 513 243 572 519 19 87 14 224 -12 309 -81 274 -320 462 -604 475 -61 3 -117 0 -155 -9z m305 -105 l55 -17 -90 -7 c-146 -10 -281 -65 -393 -161 -159 -137 -246 -302 -261 -496 l-7 -95 -19 60 c-28 88 -27 237 3 332 28 89 104 205 174 265 61 52 156 102 231 123 75 20 239 18 307 -4z" fill="#063471" stroke="none" /><g transform="translate(0.000000,410.000000) scale(0.100000,-0.100000)" fill="#000000" stroke="none" /></svg>