<svg version="1.1" id="Layer_1" xmlns="http://www.w3.org/2000/svg" xmlns:xlink="http://www.w3.org/1999/xlink" x="0px" y="0px"
	 width="100%" viewBox="0 0 148 142" enable-background="new 0 0 148 142" xml:space="preserve">
<path fill="#000000" opacity="1.000000" stroke="none" 
	d="
M86.000000,143.000000 
	C57.357624,143.000000 29.215250,143.000000 1.036437,143.000000 
	C1.036437,95.731804 1.036437,48.463570 1.036437,1.097669 
	C50.225502,1.097669 99.451256,1.097669 148.838501,1.097669 
	C148.838501,48.332893 148.838501,95.666397 148.838501,143.000000 
	C128.130585,143.000000 107.315292,143.000000 86.000000,143.000000 
M64.976051,82.428772 
	C65.137222,77.393059 68.033768,75.687294 72.335068,78.095070 
	C92.320763,89.282661 115.418327,78.980255 120.066864,56.804852 
	C122.758667,43.963860 117.058815,30.988857 105.534805,23.724443 
	C94.242928,16.606361 80.153435,17.407949 69.068039,25.799137 
	C59.078842,33.360538 54.437649,47.859531 58.436474,59.869705 
	C59.733555,63.765385 61.737339,67.425766 63.499470,71.376724 
	C63.192196,71.769073 62.898155,72.516411 62.375275,72.748741 
	C59.914734,73.842056 56.809887,74.179710 54.990360,75.902008 
	C46.771622,83.681580 38.808033,91.740746 30.976572,99.913872 
	C28.301416,102.705742 28.608349,106.115128 31.415024,108.843811 
	C34.048672,111.404289 37.061779,111.457581 39.980167,109.178383 
	C41.024525,108.362770 41.950790,107.384811 42.872009,106.424408 
	C50.320522,98.658882 57.754997,90.879890 64.976051,82.428772 
z"/>
<path fill="#EBEDF2" opacity="1.000000" stroke="none" 
	d="
M65.084900,82.766891 
	C57.754997,90.879890 50.320522,98.658882 42.872009,106.424408 
	C41.950790,107.384811 41.024525,108.362770 39.980167,109.178383 
	C37.061779,111.457581 34.048672,111.404289 31.415024,108.843811 
	C28.608349,106.115128 28.301416,102.705742 30.976572,99.913872 
	C38.808033,91.740746 46.771622,83.681580 54.990360,75.902008 
	C56.809887,74.179710 59.914734,73.842056 62.375275,72.748741 
	C62.898155,72.516411 63.192196,71.769073 63.499470,71.376724 
	C61.737339,67.425766 59.733555,63.765385 58.436474,59.869705 
	C54.437649,47.859531 59.078842,33.360538 69.068039,25.799137 
	C80.153435,17.407949 94.242928,16.606361 105.534805,23.724443 
	C117.058815,30.988857 122.758667,43.963860 120.066864,56.804852 
	C115.418327,78.980255 92.320763,89.282661 72.335068,78.095070 
	C68.033768,75.687294 65.137222,77.393059 65.084900,82.766891 
M82.492928,26.318703 
	C81.752434,26.660294 81.011948,27.001884 79.593277,27.419119 
	C77.713318,28.465141 75.701614,29.330181 73.975105,30.587008 
	C63.921715,37.905464 60.935623,50.657829 66.471001,62.193901 
	C71.449715,72.569855 83.677322,78.185768 94.940575,75.269463 
	C107.050858,72.133850 114.703362,61.449097 113.880424,48.824818 
	C113.106003,36.944557 103.953918,27.413845 91.443214,25.592775 
	C89.629021,25.729284 87.814819,25.865793 85.252991,25.917274 
	C84.534653,26.113091 83.816322,26.308907 82.492928,26.318703 
z"/>
<path fill="#17356F" opacity="1.000000" stroke="none" 
	d="
M91.992607,26.031475 
	C103.953918,27.413845 113.106003,36.944557 113.880424,48.824818 
	C114.703362,61.449097 107.050858,72.133850 94.940575,75.269463 
	C83.677322,78.185768 71.449715,72.569855 66.471001,62.193901 
	C60.935623,50.657829 63.921715,37.905464 73.975105,30.587008 
	C75.701614,29.330181 77.713318,28.465141 80.243141,27.504463 
	C81.627998,27.228113 82.362991,26.866417 83.097984,26.504723 
	C83.816322,26.308907 84.534653,26.113091 85.901672,26.189491 
	C88.364441,26.318298 90.178520,26.174887 91.992607,26.031475 
M71.869469,46.883492 
	C72.232643,46.230301 72.595810,45.577106 73.142418,44.271801 
	C76.524742,39.046646 80.831749,34.938057 87.687424,32.998348 
	C90.576736,32.419708 93.466057,31.841066 96.355370,31.262424 
	C96.272041,30.613693 96.188721,29.964962 96.105392,29.316233 
	C93.046799,29.559303 89.988213,29.802374 86.106651,29.980495 
	C75.647568,30.255852 66.438255,41.366863 66.586227,53.506634 
	C66.976013,55.222790 67.365807,56.938946 67.755592,58.655102 
	C68.408028,58.583012 69.060455,58.510921 69.712891,58.438828 
	C69.976341,55.675255 70.239784,52.911678 70.360031,49.488617 
	C70.671532,48.681713 70.983032,47.874809 71.869469,46.883492 
z"/>
<path fill="#3F5888" opacity="1.000000" stroke="none" 
	d="
M91.717911,25.812126 
	C90.178520,26.174887 88.364441,26.318298 86.275490,26.232006 
	C87.814819,25.865793 89.629021,25.729284 91.717911,25.812126 
z"/>
<path fill="#3F5888" opacity="1.000000" stroke="none" 
	d="
M82.795456,26.411713 
	C82.362991,26.866417 81.627998,27.228113 80.582230,27.466640 
	C81.011948,27.001884 81.752434,26.660294 82.795456,26.411713 
z"/>
<path fill="#E0E4EB" opacity="1.000000" stroke="none" 
	d="
M86.861786,32.910023 
	C80.831749,34.938057 76.524742,39.046646 72.727493,44.661362 
	C71.973228,45.723248 71.633881,46.395576 71.294533,47.067905 
	C70.983032,47.874809 70.671532,48.681713 70.063324,49.890762 
	C68.856216,51.191891 67.945824,52.090874 67.035439,52.989861 
	C66.438255,41.366863 75.647568,30.255852 86.607147,30.365604 
	C87.025688,31.470482 86.943741,32.190254 86.861786,32.910023 
z"/>
<path fill="#4C6490" opacity="1.000000" stroke="none" 
	d="
M87.274612,32.954185 
	C86.943741,32.190254 87.025688,31.470482 87.018631,30.398079 
	C89.988213,29.802374 93.046799,29.559303 96.105392,29.316233 
	C96.188721,29.964962 96.272041,30.613693 96.355370,31.262424 
	C93.466057,31.841066 90.576736,32.419708 87.274612,32.954185 
z"/>
<path fill="#3F5888" opacity="1.000000" stroke="none" 
	d="
M66.810837,53.248245 
	C67.945824,52.090874 68.856216,51.191891 70.134918,50.220505 
	C70.239784,52.911678 69.976341,55.675255 69.712891,58.438828 
	C69.060455,58.510921 68.408028,58.583012 67.755592,58.655102 
	C67.365807,56.938946 66.976013,55.222790 66.810837,53.248245 
z"/>
<path fill="#3F5888" opacity="1.000000" stroke="none" 
	d="
M71.582001,46.975700 
	C71.633881,46.395576 71.973228,45.723248 72.635780,44.987419 
	C72.595810,45.577106 72.232643,46.230301 71.582001,46.975700 
z"/>
</svg>