<?xml version="1.0" standalone="no"?>
<!DOCTYPE svg PUBLIC "-//W3C//DTD SVG 20010904//EN"
 "http://www.w3.org/TR/2001/REC-SVG-20010904/DTD/svg10.dtd">
<svg version="1.0" xmlns="http://www.w3.org/2000/svg"
 width="327.000000pt" height="204.000000pt" viewBox="0 0 327.000000 204.000000"
 preserveAspectRatio="xMidYMid meet">
<metadata>
Created by potrace 1.16, written by Peter Selinger 2001-2019
</metadata>
<g transform="translate(0.000000,204.000000) scale(0.100000,-0.100000)"
fill="#000000" stroke="none">
<path d="M1635 1881 c-157 -45 -299 -162 -368 -303 -87 -176 -83 -387 10 -548
l26 -44 -62 -57 c-46 -41 -68 -55 -85 -52 -18 4 -64 -37 -240 -209 -253 -246
-269 -271 -230 -354 28 -59 110 -83 172 -50 15 8 123 111 240 229 164 164 213
219 210 235 -2 15 13 38 51 76 l53 54 62 -39 c97 -60 165 -81 291 -86 132 -6
202 9 317 69 140 72 254 223 288 379 19 84 8 259 -19 330 -71 185 -229 327
-416 374 -79 20 -224 18 -300 -4z m355 -132 c163 -78 258 -208 279 -380 29
-226 -110 -442 -326 -509 -80 -25 -207 -27 -284 -4 -227 67 -378 303 -339 533
30 179 156 326 328 382 44 15 81 18 162 16 97 -2 111 -5 180 -38z"/>
<path d="M1653 1701 c-103 -35 -179 -107 -230 -217 -22 -47 -28 -77 -30 -149
l-3 -90 27 80 c47 135 118 226 227 290 63 37 166 65 238 65 32 0 58 4 58 8 0
14 -97 32 -168 32 -38 -1 -90 -9 -119 -19z"/>
</g>
</svg>
