<?xml version='1.0' encoding='utf-8'?>
<svg xmlns="http://www.w3.org/2000/svg" width="999.000000pt" height="425.000000pt" viewBox="0 0 999.000000 425.000000"><rect width="100%" height="100%" fill="#FFFFFF" /><path d="M0 2125 l0 -2125 4995 0 4995 0 0 2125 0 2125 -4995 0 -4995 0 0 -2125z m5132 1247 c397 -107 687 -412 774 -816 22 -98 21 -307 -1 -411 -39 -186 -140 -379 -264 -506 -52 -54 -61 -60 -80 -50 -33 18 -25 48 32 114 102 118 169 237 214 384 25 82 27 101 27 268 0 168 -2 186 -28 270 -50 162 -127 291 -248 413 -124 125 -282 214 -458 258 -110 28 -355 26 -462 -4 -217 -59 -385 -166 -514 -327 -106 -131 -178 -292 -204 -457 -16 -96 -8 -313 14 -390 46 -168 119 -301 230 -426 31 -35 56 -67 56 -72 0 -12 -29 -40 -43 -40 -20 0 -135 126 -183 200 -333 516 -155 1208 387 1499 91 49 166 76 279 102 116 26 359 21 472 -9z m-60 -223 c431 -110 701 -536 612 -967 -23 -110 -38 -142 -67 -142 -45 0 -50 20 -27 101 30 106 37 245 16 346 -33 165 -105 294 -224 404 -87 80 -158 123 -269 162 -84 30 -95 32 -238 32 -143 0 -154 -2 -238 -32 -120 -42 -186 -84 -282 -178 -93 -90 -149 -181 -192 -310 -23 -70 -27 -96 -27 -215 -1 -115 2 -146 22 -210 l24 -74 -22 -18 c-44 -35 -71 9 -100 161 -14 76 -12 224 4 302 67 313 307 563 614 639 110 27 288 27 394 -1z m-89 -269 c118 -37 213 -147 236 -274 6 -34 11 -179 11 -333 l0 -273 -355 0 -355 0 0 80 0 80 183 0 c100 0 188 4 195 9 8 4 12 19 10 32 l-3 24 -190 5 -190 5 -3 38 -3 37 176 0 c180 0 215 6 215 38 0 38 -18 42 -207 42 l-183 0 0 40 0 40 183 0 c189 0 207 4 207 42 0 32 -35 38 -215 38 l-175 0 6 28 c3 15 7 33 10 40 2 9 48 12 183 12 162 0 181 2 190 18 6 11 6 24 0 35 -9 15 -29 17 -180 17 l-170 0 18 31 c38 65 141 141 218 160 55 13 122 9 188 -11z m-545 -692 c8 -8 12 -54 12 -143 0 -84 5 -151 15 -189 39 -149 153 -260 310 -302 163 -44 355 29 449 171 60 89 68 123 75 299 5 136 8 160 24 170 12 8 22 8 35 0 15 -10 17 -31 20 -150 3 -157 -6 -210 -48 -298 -55 -114 -161 -210 -285 -258 l-56 -21 3 -81 3 -81 201 -5 c216 -5 221 -7 250 -61 17 -34 19 -140 2 -157 -17 -17 -1129 -17 -1146 0 -17 17 -15 123 3 158 26 50 45 55 255 60 l195 5 3 82 3 81 -50 17 c-112 37 -234 143 -286 249 -44 90 -55 150 -55 302 0 143 5 164 40 164 9 0 21 -5 28 -12z m782 -285 c0 -43 -44 -128 -95 -182 -133 -142 -366 -143 -499 -1 -52 56 -83 112 -92 169 l-7 41 347 0 346 0 0 -27z" fill="#063471" stroke="none" /><g transform="translate(0.000000,425.000000) scale(0.100000,-0.100000)" fill="#000000" stroke="none" /></svg>