<?xml version="1.0" standalone="no"?>
<!DOCTYPE svg PUBLIC "-//W3C//DTD SVG 20010904//EN"
 "http://www.w3.org/TR/2001/REC-SVG-20010904/DTD/svg10.dtd">
<svg version="1.0" xmlns="http://www.w3.org/2000/svg"
 width="295.000000pt" height="300.000000pt" viewBox="0 0 295.000000 300.000000"
 preserveAspectRatio="xMidYMid meet">
<metadata>
Created by potrace 1.16, written by Peter Selinger 2001-2019
</metadata>
<g transform="translate(0.000000,300.000000) scale(0.100000,-0.100000)"
fill="#000000" stroke="none">
<path d="M1275 2819 c-233 -34 -452 -138 -597 -284 -150 -150 -245 -295 -297
-452 -127 -376 -42 -820 209 -1103 62 -70 91 -85 118 -58 22 22 12 54 -29 93
-46 44 -145 189 -190 277 -60 118 -97 334 -84 488 21 252 132 497 301 666 51
50 209 161 284 199 340 171 784 126 1097 -111 75 -58 199 -189 249 -264 101
-152 163 -407 151 -625 -14 -245 -92 -425 -273 -628 -72 -79 -10 -152 63 -74
184 196 296 492 296 782 -1 268 -77 482 -246 691 -188 232 -428 367 -720 404
-95 12 -246 11 -332 -1z"/>
<path d="M1335 2559 c-202 -27 -380 -121 -529 -280 -81 -86 -146 -204 -188
-339 -20 -64 -23 -97 -23 -225 0 -206 33 -333 83 -323 34 7 36 33 13 128 -24
100 -30 261 -11 344 29 131 113 288 203 379 85 85 217 168 323 203 82 27 101
29 234 29 140 0 148 -2 255 -37 137 -46 237 -111 332 -212 78 -84 128 -170
169 -296 39 -118 41 -281 5 -418 -23 -86 -24 -94 -8 -109 28 -29 62 -4 81 60
77 265 25 561 -134 762 -122 154 -307 274 -490 318 -85 21 -227 28 -315 16z"/>
<path d="M1337 2269 c-52 -12 -129 -53 -172 -91 -33 -28 -95 -109 -95 -122 0
-3 87 -6 193 -6 203 0 217 -3 217 -46 0 -40 -18 -43 -226 -46 l-199 -3 -2 -47
-1 -48 194 0 c116 0 203 -4 215 -10 21 -12 25 -50 7 -68 -9 -9 -69 -12 -210
-12 l-198 0 0 -50 0 -50 188 0 c170 0 191 -2 205 -18 21 -23 21 -36 1 -56 -13
-13 -46 -16 -205 -16 l-189 0 0 -50 0 -50 193 0 c180 0 195 -1 212 -20 22 -24
14 -47 -20 -60 -15 -6 -106 -10 -203 -10 l-177 0 2 -83 c1 -46 6 -101 11 -121
37 -132 174 -249 327 -277 157 -29 340 72 418 231 l32 65 0 370 c0 356 -1 373
-22 440 -41 125 -117 203 -241 244 -66 22 -183 27 -255 10z"/>
<path d="M1971 1474 c-19 -14 -21 -24 -21 -138 0 -178 -30 -263 -129 -370
-155 -167 -393 -208 -596 -103 -118 61 -217 193 -244 325 -6 29 -11 101 -11
160 0 117 -6 132 -51 132 -42 0 -53 -40 -46 -165 7 -128 33 -216 91 -316 70
-118 162 -191 329 -258 26 -10 27 -13 27 -86 l0 -75 -156 0 c-123 0 -163 -3
-190 -16 -51 -24 -77 -68 -82 -133 -7 -101 -55 -93 563 -92 l540 0 18 23 c35
42 4 147 -56 192 -26 19 -44 21 -198 24 l-169 3 0 70 0 69 64 29 c126 57 216
131 285 236 87 132 104 194 99 369 -3 111 -4 119 -24 127 -14 5 -29 2 -43 -7z"/>
</g>
</svg>
