<?xml version="1.0" standalone="no"?>
<!DOCTYPE svg PUBLIC "-//W3C//DTD SVG 20010904//EN"
 "http://www.w3.org/TR/2001/REC-SVG-20010904/DTD/svg10.dtd">
<svg version="1.0" xmlns="http://www.w3.org/2000/svg"
 width="302.000000pt" height="290.000000pt" viewBox="0 0 302.000000 290.000000"
 preserveAspectRatio="xMidYMid meet">
<metadata>
Created by potrace 1.16, written by Peter Selinger 2001-2019
</metadata>
<g transform="translate(0.000000,290.000000) scale(0.100000,-0.100000)"
fill="#000000" stroke="none">
<path d="M0 1450 l0 -1450 1510 0 1510 0 0 1450 0 1450 -1510 0 -1510 0 0
-1450z m1704 876 c148 -50 275 -136 370 -253 192 -232 232 -571 101 -847 -57
-120 -167 -252 -200 -240 -31 12 -22 36 35 100 66 75 110 151 147 257 19 56
26 98 30 192 6 152 -10 235 -73 364 -40 81 -60 109 -138 186 -76 76 -106 99
-186 138 -209 103 -437 104 -649 1 -83 -40 -109 -59 -186 -138 -99 -100 -146
-177 -187 -306 -20 -64 -23 -95 -22 -215 0 -123 3 -150 26 -217 33 -100 86
-194 148 -261 51 -56 63 -90 33 -101 -11 -5 -31 8 -64 43 -220 229 -274 602
-128 895 114 228 294 363 574 430 11 3 81 3 155 2 114 -3 147 -8 214 -30z
m-112 -157 c75 -15 207 -81 267 -132 103 -88 172 -200 207 -337 21 -82 15
-241 -11 -322 -20 -62 -33 -74 -60 -54 -17 12 -17 15 -1 62 24 66 32 208 16
286 -40 208 -223 395 -428 437 -289 60 -574 -114 -657 -402 -23 -80 -21 -213
4 -302 11 -38 17 -73 15 -77 -3 -4 -16 -8 -29 -8 -40 0 -60 78 -60 240 0 162
17 224 95 343 113 171 303 275 507 276 45 1 106 -4 135 -10z m-15 -221 c58
-27 120 -99 138 -161 11 -38 15 -104 15 -269 l0 -218 -265 0 -265 0 0 50 0 49
148 3 147 3 0 25 0 25 -147 3 -148 3 0 29 0 30 143 0 c151 0 175 6 156 42 -9
16 -24 18 -154 18 l-145 0 0 30 0 29 148 3 147 3 0 25 0 25 -148 3 -148 3 3
27 3 27 145 5 145 5 0 25 0 25 -138 3 -137 3 14 27 c58 111 219 158 343 100z
m-439 -520 c8 -8 12 -47 12 -109 0 -169 51 -266 173 -328 58 -30 76 -34 142
-34 66 0 84 4 142 34 122 62 173 159 173 328 0 103 7 125 36 119 17 -3 19 -14
19 -133 0 -122 -2 -134 -29 -192 -35 -76 -113 -154 -191 -189 l-55 -25 0 -60
0 -59 145 0 c133 0 146 -2 163 -21 25 -26 35 -86 19 -118 l-12 -26 -412 -3
-412 -2 -12 21 c-17 33 -5 110 21 131 19 15 43 18 166 18 l144 0 0 65 c0 52
-3 65 -15 65 -60 0 -190 113 -228 198 -68 151 -59 390 11 320z m582 -210 c-1
-38 -53 -120 -98 -155 -94 -71 -223 -70 -319 3 -38 28 -80 96 -89 142 l-6 32
256 0 256 0 0 -22z"/>
</g>
</svg>
