<?xml version="1.0" standalone="no"?>
<!DOCTYPE svg PUBLIC "-//W3C//DTD SVG 20010904//EN"
 "http://www.w3.org/TR/2001/REC-SVG-20010904/DTD/svg10.dtd">
<svg version="1.0" xmlns="http://www.w3.org/2000/svg"
 width="302.000000pt" height="290.000000pt" viewBox="0 0 302.000000 290.000000"
 preserveAspectRatio="xMidYMid meet">
<metadata>
Created by potrace 1.16, written by Peter Selinger 2001-2019
</metadata>
<g transform="translate(0.000000,290.000000) scale(0.100000,-0.100000)"
fill="#000000" stroke="none">
<path d="M1335 2354 c-219 -52 -368 -141 -484 -287 -243 -305 -226 -764 38
-1038 33 -35 53 -48 64 -43 30 11 18 45 -33 101 -62 67 -115 161 -148 261 -23
67 -26 94 -26 217 -1 120 2 151 22 215 41 129 88 206 187 306 77 79 103 98
186 138 212 103 440 102 649 -1 80 -39 110 -62 186 -138 78 -77 98 -105 138
-186 63 -129 79 -212 73 -364 -4 -94 -11 -136 -30 -192 -37 -106 -81 -182
-147 -257 -57 -64 -66 -88 -35 -100 20 -7 59 27 116 103 108 141 159 298 159
483 0 349 -211 641 -546 754 -67 22 -100 27 -214 30 -74 1 -144 1 -155 -2z"/>
<path d="M1310 2161 c-149 -40 -276 -132 -360 -258 -78 -119 -95 -181 -95
-343 0 -162 20 -240 60 -240 13 0 26 4 29 8 2 4 -4 39 -15 77 -102 358 166
715 536 715 261 0 495 -193 545 -448 16 -78 8 -220 -16 -286 -16 -47 -16 -50
1 -62 27 -20 40 -8 60 54 26 81 32 240 11 322 -35 137 -104 249 -207 337 -60
51 -192 117 -267 132 -77 16 -207 12 -282 -8z"/>
<path d="M1415 1970 c-73 -12 -151 -64 -181 -122 l-14 -27 137 -3 138 -3 0
-25 0 -25 -145 -5 -145 -5 -3 -27 -3 -27 148 -3 148 -3 0 -25 0 -25 -147 -3
-148 -3 0 -29 0 -30 145 0 c130 0 145 -2 154 -18 19 -36 -5 -42 -156 -42
l-143 0 0 -30 0 -29 148 -3 147 -3 0 -25 0 -25 -147 -3 -148 -3 0 -49 0 -50
265 0 265 0 0 218 c0 253 -8 294 -70 365 -63 72 -152 103 -245 87z"/>
<path d="M1090 1421 c-24 -47 -4 -222 37 -313 38 -85 168 -198 228 -198 12 0
15 -13 15 -65 l0 -65 -144 0 c-123 0 -147 -3 -166 -18 -26 -21 -38 -98 -21
-131 l12 -21 412 2 412 3 12 26 c16 32 6 92 -19 118 -17 19 -30 21 -163 21
l-145 0 0 59 0 60 55 25 c78 35 156 113 191 189 27 58 29 70 29 192 0 119 -2
130 -19 133 -29 6 -36 -16 -36 -119 0 -169 -51 -266 -173 -328 -58 -30 -76
-34 -142 -34 -66 0 -84 4 -142 34 -122 62 -173 159 -173 328 0 96 -8 121 -37
121 -7 0 -17 -9 -23 -19z"/>
<path d="M1214 1208 c28 -139 183 -228 328 -188 79 22 177 131 178 198 l0 22
-256 0 -256 0 6 -32z"/>
</g>
</svg>
