<svg version="1.1" id="Layer_1" xmlns="http://www.w3.org/2000/svg" xmlns:xlink="http://www.w3.org/1999/xlink" x="0px" y="0px"
	 width="100%" viewBox="0 0 138 146" enable-background="new 0 0 138 146" xml:space="preserve">
<path fill="#18356F" opacity="1.000000" stroke="none" 
	d="
M92.000000,147.000000 
	C61.359905,147.000000 31.219810,147.000000 1.039858,147.000000 
	C1.039858,98.402802 1.039858,49.805561 1.039858,1.104159 
	C46.889832,1.104159 92.779976,1.104159 138.835052,1.104159 
	C138.835052,49.666206 138.835052,98.333061 138.835052,147.000000 
	C123.472618,147.000000 107.986305,147.000000 92.000000,147.000000 
M70.298317,125.931030 
	C72.025658,125.818260 73.752991,125.705482 76.192581,125.219246 
	C77.047104,122.838219 78.589180,120.471794 78.640091,118.073708 
	C78.894257,106.101593 78.725342,94.121002 78.784874,82.143799 
	C78.796326,79.840485 78.280350,76.538345 82.357437,79.762024 
	C82.336220,88.490967 82.249680,97.220581 82.339172,105.948387 
	C82.361885,108.164078 82.944649,110.374031 83.486076,113.257164 
	C87.771721,118.341919 88.968643,118.319138 93.303566,112.677826 
	C93.353706,112.533073 93.456825,112.383095 93.443146,112.244644 
	C93.413071,111.940308 93.323944,111.641792 94.039490,110.669228 
	C94.106857,94.928368 94.174225,79.187500 94.774559,63.155491 
	C95.161156,62.693195 95.547752,62.230896 96.750153,62.059643 
	C97.259033,63.875206 98.177010,65.683182 98.210838,67.507553 
	C98.441963,79.973640 98.487404,92.443169 98.310997,105.532173 
	C98.820862,106.455948 99.330727,107.379723 99.955429,108.729843 
	C100.122101,109.006744 100.366928,109.150871 101.008820,109.809204 
	C103.148476,109.614120 105.288124,109.419044 108.166168,108.787140 
	C108.448463,108.305626 108.730751,107.824112 109.314873,107.138031 
	C109.381393,106.664696 109.447914,106.191360 109.976387,105.066078 
	C110.049019,100.784203 110.181328,96.502281 110.178123,92.220467 
	C110.174652,87.578590 108.955536,82.192627 116.623833,82.825226 
	C116.734123,82.834320 116.889923,82.291725 117.222519,81.116539 
	C114.017097,80.708778 110.779175,79.923225 107.632111,80.193909 
	C106.956665,80.252014 106.234337,84.122055 106.182472,86.251900 
	C106.029884,92.517090 106.203407,98.790222 105.745537,105.384880 
	C105.402298,105.871994 105.059067,106.359116 104.142067,106.685966 
	C103.583214,106.487930 103.024368,106.289894 102.421806,105.143112 
	C102.362328,92.613571 102.333160,80.083725 102.208481,67.554840 
	C102.191109,65.809486 101.703514,64.068810 101.451202,61.741768 
	C101.024635,61.132027 100.598061,60.522289 99.995018,59.338249 
	C99.299591,59.072083 98.604156,58.805916 97.246338,58.189987 
	C96.522453,58.272968 95.798569,58.355949 94.462357,58.292900 
	C93.818642,58.776909 93.174927,59.260918 92.115379,59.919273 
	C91.881973,60.127140 91.734245,60.384235 91.018745,61.129395 
	C90.742958,61.901237 90.225075,62.673717 90.227089,63.444839 
	C90.268631,79.368050 90.369308,95.291107 89.976776,111.761032 
	C89.303726,111.980728 88.630676,112.200424 87.727005,111.867928 
	C87.322975,111.439980 86.918953,111.012039 86.536972,109.700859 
	C86.438370,99.139984 86.339767,88.579109 86.518753,77.601921 
	C86.067459,77.005447 85.616158,76.408974 84.823708,75.373123 
	C84.366440,75.062576 83.909164,74.752029 83.083900,73.877495 
	C81.279716,74.140007 79.475533,74.402519 77.054482,75.097122 
	C76.395294,77.393959 75.203796,79.682144 75.166260,81.989105 
	C74.972328,93.907364 75.178497,105.832512 74.943489,117.749298 
	C74.913139,119.288132 73.132401,120.792450 72.160851,121.818733 
	C71.790253,121.544014 71.419655,121.269295 70.939346,120.063438 
	C70.854042,98.434196 70.768730,76.804955 70.959450,54.541019 
	C70.277054,53.735416 69.594658,52.929813 68.281097,51.643749 
	C61.404305,49.986362 59.873207,51.036667 59.459961,57.640560 
	C59.410118,58.437000 59.175358,59.221870 58.553001,59.455570 
	C58.009052,57.606899 57.465103,55.758232 56.859097,52.997913 
	C56.458675,48.612534 56.058254,44.227158 55.362328,39.160492 
	C54.318249,35.912926 52.226704,33.900425 48.694344,34.556519 
	C45.025688,35.237923 43.586731,37.951035 43.554619,41.513615 
	C43.542614,42.845570 43.543442,44.177670 43.543396,45.509701 
	C43.542595,69.153496 43.562527,92.797340 43.504604,116.441002 
	C43.499954,118.340912 42.960575,120.239510 42.669685,122.138710 
	C42.050251,122.122314 41.430817,122.105911 40.811382,122.089508 
	C40.547966,120.119102 40.062359,118.149437 40.055775,116.178177 
	C39.995121,98.029266 40.048988,79.879982 39.994408,61.731033 
	C39.979816,56.880188 37.665466,54.028740 34.075481,54.017265 
	C30.464382,54.005722 28.027967,56.897167 27.932943,61.605629 
	C27.828814,66.765251 28.062666,71.936539 27.801796,77.085136 
	C27.725849,78.584061 26.461437,80.023430 25.738941,81.488678 
	C25.337767,82.302277 24.439844,83.294579 24.655409,83.877174 
	C24.902822,84.545845 26.089752,85.124893 26.946732,85.265121 
	C30.549799,85.854706 32.611210,84.805229 32.407848,80.545311 
	C32.138210,74.897087 32.286648,69.225143 32.382721,63.565556 
	C32.410587,61.923969 32.874466,60.289780 33.138474,58.652203 
	C33.730324,58.616535 34.322170,58.580868 34.914021,58.545200 
	C35.211670,60.426693 35.760830,62.307262 35.767780,64.189827 
	C35.832317,81.672668 35.797138,99.155861 35.805031,116.638947 
	C35.808044,123.318390 37.626419,126.280197 41.716354,126.361946 
	C46.018688,126.447945 47.835709,123.456970 47.908031,116.417740 
	C47.950642,112.270737 48.145710,108.125290 49.156574,103.891006 
	C50.279140,103.537178 51.401711,103.183350 53.173183,103.203171 
	C55.774212,103.120522 58.375244,103.037872 61.687737,102.740562 
	C62.393879,100.687775 63.679306,98.643951 63.711201,96.580742 
	C63.903492,84.141541 63.752731,71.697357 63.872913,59.256351 
	C63.890038,57.483238 62.643909,53.537720 67.252403,56.918652 
	C67.255272,77.036415 67.209259,97.154465 67.326790,117.271561 
	C67.340500,119.618607 68.257820,121.960365 68.768127,124.736618 
	C69.101524,124.969490 69.434921,125.202362 70.298317,125.931030 
M112.560226,40.771027 
	C110.698387,39.854473 108.727440,39.102650 107.011383,37.966003 
	C105.776764,37.148251 104.882126,35.817200 103.835838,34.715118 
	C103.200325,36.261967 102.509689,37.789337 101.953255,39.364128 
	C101.687386,40.116585 101.676201,40.959030 101.532249,41.870968 
	C97.634293,42.627121 93.804207,44.024796 94.577011,48.636066 
	C94.914551,50.650166 97.603683,53.548962 99.510376,53.790268 
	C106.209259,54.638039 105.832497,48.672245 106.976799,44.005760 
	C110.003883,44.823208 112.677391,45.545174 115.350899,46.267139 
	C115.615829,45.902554 115.880760,45.537968 116.145691,45.173382 
	C115.174881,43.807781 114.204071,42.442181 112.560226,40.771027 
z"/>
<path fill="#DADFE8" opacity="1.000000" stroke="none" 
	d="
M60.976273,102.955223 
	C58.375244,103.037872 55.774212,103.120522 52.776028,102.700989 
	C52.042522,100.094528 51.423962,97.991547 51.414333,95.885780 
	C51.335175,78.572289 51.396786,61.258160 51.324795,43.944603 
	C51.317841,42.271507 50.695423,40.600967 50.358704,38.929237 
	C49.895714,38.960972 49.432724,38.992706 48.969734,39.024441 
	C48.628521,40.046154 47.987831,41.068584 47.990292,42.089470 
	C48.039978,62.719467 48.163502,83.349289 48.272209,103.979149 
	C48.145710,108.125290 47.950642,112.270737 47.908031,116.417740 
	C47.835709,123.456970 46.018688,126.447945 41.716354,126.361946 
	C37.626419,126.280197 35.808044,123.318390 35.805031,116.638947 
	C35.797138,99.155861 35.832317,81.672668 35.767780,64.189827 
	C35.760830,62.307262 35.211670,60.426693 34.914021,58.545200 
	C34.322170,58.580868 33.730324,58.616535 33.138474,58.652203 
	C32.874466,60.289780 32.410587,61.923969 32.382721,63.565556 
	C32.286648,69.225143 32.138210,74.897087 32.407848,80.545311 
	C32.611210,84.805229 30.549799,85.854706 26.946732,85.265121 
	C26.089752,85.124893 24.902822,84.545845 24.655409,83.877174 
	C24.439844,83.294579 25.337767,82.302277 25.738941,81.488678 
	C26.461437,80.023430 27.725849,78.584061 27.801796,77.085136 
	C28.062666,71.936539 27.828814,66.765251 27.932943,61.605629 
	C28.027967,56.897167 30.464382,54.005722 34.075481,54.017265 
	C37.665466,54.028740 39.979816,56.880188 39.994408,61.731033 
	C40.048988,79.879982 39.995121,98.029266 40.055775,116.178177 
	C40.062359,118.149437 40.547966,120.119102 40.811382,122.089508 
	C41.430817,122.105911 42.050251,122.122314 42.669685,122.138710 
	C42.960575,120.239510 43.499954,118.340912 43.504604,116.441002 
	C43.562527,92.797340 43.542595,69.153496 43.543396,45.509701 
	C43.543442,44.177670 43.542614,42.845570 43.554619,41.513615 
	C43.586731,37.951035 45.025688,35.237923 48.694344,34.556519 
	C52.226704,33.900425 54.318249,35.912926 55.365849,39.960503 
	C55.330349,59.312309 55.286968,77.864098 55.264465,96.415916 
	C55.263271,97.401169 55.096539,98.641861 55.602196,99.319221 
	C56.676121,100.757820 58.213902,102.566940 59.082260,98.583412 
	C59.286102,96.766258 59.408829,95.365540 59.829273,94.114471 
	C60.827366,95.917198 61.527740,97.570267 62.191978,99.553894 
	C61.762653,100.908043 61.369465,101.931633 60.976273,102.955223 
z"/>
<path fill="#F5F6F9" opacity="1.000000" stroke="none" 
	d="
M72.162476,122.312759 
	C73.132401,120.792450 74.913139,119.288132 74.943489,117.749298 
	C75.178497,105.832512 74.972328,93.907364 75.166260,81.989105 
	C75.203796,79.682144 76.395294,77.393959 77.842461,74.952148 
	C80.237595,74.685280 81.844742,74.563377 83.451897,74.441483 
	C83.909164,74.752029 84.366440,75.062576 85.006371,75.915314 
	C85.539749,76.977745 85.890465,77.497993 86.241165,78.018234 
	C86.339767,88.579109 86.438370,99.139984 86.401672,110.396164 
	C86.830124,111.534363 87.393883,111.977242 87.957634,112.420120 
	C88.630676,112.200424 89.303726,111.980728 90.527634,111.274269 
	C91.278671,109.330482 91.648949,107.873909 91.652802,106.416367 
	C91.693001,91.174522 91.674461,75.932518 91.672188,60.690559 
	C91.734245,60.384235 91.881973,60.127140 92.638420,59.880997 
	C93.799202,59.374786 94.436943,58.906857 95.074684,58.438927 
	C95.798569,58.355949 96.522453,58.272968 97.685699,58.634888 
	C98.807205,59.357372 99.489349,59.634960 100.171494,59.912544 
	C100.598061,60.522289 101.024635,61.132027 101.307251,62.535198 
	C101.093796,76.449829 100.986732,89.571121 101.021111,102.692047 
	C101.024078,103.826569 101.961937,104.958641 102.465523,106.091858 
	C103.024368,106.289894 103.583214,106.487930 104.787178,106.823349 
	C105.913452,106.933304 106.394615,106.905876 107.404785,107.018906 
	C108.293549,107.220451 108.653297,107.281525 109.013046,107.342598 
	C108.730751,107.824112 108.448463,108.305626 107.316956,108.939621 
	C104.541809,109.115486 102.615860,109.138855 100.689919,109.162231 
	C100.366928,109.150871 100.122101,109.006744 99.945740,108.189819 
	C99.488266,106.737053 99.040489,105.824318 98.592712,104.911583 
	C98.487404,92.443169 98.441963,79.973640 98.210838,67.507553 
	C98.177010,65.683182 97.259033,63.875206 96.107101,61.782101 
	C95.056572,62.151920 94.649086,62.799282 94.241592,63.446640 
	C94.174225,79.187500 94.106857,94.928368 93.504181,111.186714 
	C92.992584,112.161240 93.016304,112.618286 93.040016,113.075325 
	C88.968643,118.319138 87.771721,118.341919 83.540115,112.436783 
	C83.666924,101.681221 83.776833,91.745964 83.755325,81.810989 
	C83.753151,80.811447 82.955475,79.813622 82.526978,78.815002 
	C78.280350,76.538345 78.796326,79.840485 78.784874,82.143799 
	C78.725342,94.121002 78.894257,106.101593 78.640091,118.073708 
	C78.589180,120.471794 77.047104,122.838219 75.412201,125.221146 
	C73.408836,125.177483 72.185844,125.131920 71.176613,124.355698 
	C71.647743,123.187607 71.905113,122.750183 72.162476,122.312759 
z"/>
<path fill="#FEFEFE" opacity="1.000000" stroke="none" 
	d="
M62.228111,99.223335 
	C61.527740,97.570267 60.827366,95.917198 59.779869,93.650749 
	C59.297268,82.028946 59.161785,71.020523 59.026302,60.012100 
	C59.175358,59.221870 59.410118,58.437000 59.459961,57.640560 
	C59.873207,51.036667 61.404305,49.986362 68.562935,52.225529 
	C69.457657,53.596775 70.070541,54.386242 70.683426,55.175709 
	C70.768730,76.804955 70.854042,98.434196 70.790947,120.739319 
	C70.013771,122.378334 69.384995,123.341454 68.756226,124.304581 
	C68.257820,121.960365 67.340500,119.618607 67.326790,117.271561 
	C67.209259,97.154465 67.255272,77.036415 67.380150,56.220535 
	C66.371773,54.921627 65.235649,54.320831 64.099525,53.720036 
	C63.487255,55.308197 62.361347,56.890587 62.343426,58.485428 
	C62.190849,72.063446 62.239643,85.643730 62.228111,99.223335 
z"/>
<path fill="#E1E5EC" opacity="1.000000" stroke="none" 
	d="
M112.896744,40.923801 
	C114.204071,42.442181 115.174881,43.807781 116.145691,45.173382 
	C115.880760,45.537968 115.615829,45.902554 115.350899,46.267139 
	C112.677391,45.545174 110.003883,44.823208 106.976799,44.005760 
	C105.832497,48.672245 106.209259,54.638039 99.510376,53.790268 
	C97.603683,53.548962 94.914551,50.650166 94.577011,48.636066 
	C93.804207,44.024796 97.634293,42.627121 101.532249,41.870968 
	C101.676201,40.959030 101.687386,40.116585 101.953255,39.364128 
	C102.509689,37.789337 103.200325,36.261967 103.835838,34.715118 
	C104.882126,35.817200 105.776764,37.148251 107.011383,37.966003 
	C108.727440,39.102650 110.698387,39.854473 112.896744,40.923801 
z"/>
<path fill="#0F2C68" opacity="1.000000" stroke="none" 
	d="
M48.714394,103.935074 
	C48.163502,83.349289 48.039978,62.719467 47.990292,42.089470 
	C47.987831,41.068584 48.628521,40.046154 48.969734,39.024441 
	C49.432724,38.992706 49.895714,38.960972 50.358704,38.929237 
	C50.695423,40.600967 51.317841,42.271507 51.324795,43.944603 
	C51.396786,61.258160 51.335175,78.572289 51.414333,95.885780 
	C51.423962,97.991547 52.042522,100.094528 52.451576,102.514160 
	C51.401711,103.183350 50.279140,103.537178 48.714394,103.935074 
z"/>
<path fill="#4B628E" opacity="1.000000" stroke="none" 
	d="
M59.001141,98.999840 
	C58.213902,102.566940 56.676121,100.757820 55.602196,99.319221 
	C55.096539,98.641861 55.263271,97.401169 55.264465,96.415916 
	C55.286968,77.864098 55.330349,59.312309 55.513603,40.301147 
	C56.058254,44.227158 56.458675,48.612534 56.867035,53.932507 
	C56.864799,67.960281 56.779636,81.054375 56.939861,94.145470 
	C56.959766,95.771759 58.282242,97.382103 59.001141,98.999840 
z"/>
<path fill="#9EABC2" opacity="1.000000" stroke="none" 
	d="
M62.191978,99.553894 
	C62.239643,85.643730 62.190849,72.063446 62.343426,58.485428 
	C62.361347,56.890587 63.487255,55.308197 64.099525,53.720036 
	C65.235649,54.320831 66.371773,54.921627 67.350586,55.751446 
	C62.643909,53.537720 63.890038,57.483238 63.872913,59.256351 
	C63.752731,71.697357 63.903492,84.141541 63.711201,96.580742 
	C63.679306,98.643951 62.393879,100.687775 61.332005,102.847893 
	C61.369465,101.931633 61.762653,100.908043 62.191978,99.553894 
z"/>
<path fill="#A1ADC3" opacity="1.000000" stroke="none" 
	d="
M91.345467,60.909977 
	C91.674461,75.932518 91.693001,91.174522 91.652802,106.416367 
	C91.648949,107.873909 91.278671,109.330482 90.768387,111.000854 
	C90.369308,95.291107 90.268631,79.368050 90.227089,63.444839 
	C90.225075,62.673717 90.742958,61.901237 91.345467,60.909977 
z"/>
<path fill="#F5F6F9" opacity="1.000000" stroke="none" 
	d="
M109.514427,105.718025 
	C109.447914,106.191360 109.381393,106.664696 109.163956,107.240311 
	C108.653297,107.281525 108.293549,107.220451 107.408157,106.768135 
	C106.671432,105.938011 106.460350,105.499130 106.249260,105.060249 
	C106.203407,98.790222 106.029884,92.517090 106.182472,86.251900 
	C106.234337,84.122055 106.956665,80.252014 107.632111,80.193909 
	C110.779175,79.923225 114.017097,80.708778 116.685867,81.547806 
	C113.271111,82.332260 109.097374,80.709053 109.043015,85.795364 
	C108.972046,92.433815 109.337021,99.076920 109.514427,105.718025 
z"/>
<path fill="#D2D8E3" opacity="1.000000" stroke="none" 
	d="
M102.443665,105.617477 
	C101.961937,104.958641 101.024078,103.826569 101.021111,102.692047 
	C100.986732,89.571121 101.093796,76.449829 101.298447,62.827301 
	C101.703514,64.068810 102.191109,65.809486 102.208481,67.554840 
	C102.333160,80.083725 102.362328,92.613571 102.443665,105.617477 
z"/>
<path fill="#0E2A67" opacity="1.000000" stroke="none" 
	d="
M59.082260,98.583412 
	C58.282242,97.382103 56.959766,95.771759 56.939861,94.145470 
	C56.779636,81.054375 56.864799,67.960281 56.898064,54.388329 
	C57.465103,55.758232 58.009052,57.606899 58.789650,59.733833 
	C59.161785,71.020523 59.297268,82.028946 59.482155,93.501091 
	C59.408829,95.365540 59.286102,96.766258 59.082260,98.583412 
z"/>
<path fill="#AFB9CD" opacity="1.000000" stroke="none" 
	d="
M82.442207,79.288513 
	C82.955475,79.813622 83.753151,80.811447 83.755325,81.810989 
	C83.776833,91.745964 83.666924,101.681221 83.432114,112.101509 
	C82.944649,110.374031 82.361885,108.164078 82.339172,105.948387 
	C82.249680,97.220581 82.336220,88.490967 82.442207,79.288513 
z"/>
<path fill="#D2D8E3" opacity="1.000000" stroke="none" 
	d="
M109.745407,105.392052 
	C109.337021,99.076920 108.972046,92.433815 109.043015,85.795364 
	C109.097374,80.709053 113.271111,82.332260 116.586853,81.992836 
	C116.889923,82.291725 116.734123,82.834320 116.623833,82.825226 
	C108.955536,82.192627 110.174652,87.578590 110.178123,92.220467 
	C110.181328,96.502281 110.049019,100.784203 109.745407,105.392052 
z"/>
<path fill="#D2D8E3" opacity="1.000000" stroke="none" 
	d="
M100.849365,109.485718 
	C102.615860,109.138855 104.541809,109.115486 106.947769,109.158035 
	C105.288124,109.419044 103.148476,109.614120 100.849365,109.485718 
z"/>
<path fill="#A1ADC3" opacity="1.000000" stroke="none" 
	d="
M83.267899,74.159485 
	C81.844742,74.563377 80.237595,74.685280 78.150894,74.736107 
	C79.475533,74.402519 81.279716,74.140007 83.267899,74.159485 
z"/>
<path fill="#AFB9CD" opacity="1.000000" stroke="none" 
	d="
M70.962852,125.086357 
	C72.185844,125.131920 73.408836,125.177483 75.056076,125.407875 
	C73.752991,125.705482 72.025658,125.818260 70.237915,125.631470 
	C70.434013,125.233170 70.695793,125.151314 70.962852,125.086357 
z"/>
<path fill="#A1ADC3" opacity="1.000000" stroke="none" 
	d="
M71.176613,124.355698 
	C70.695793,125.151314 70.434013,125.233170 69.972916,125.383575 
	C69.434921,125.202362 69.101524,124.969490 68.762177,124.520599 
	C69.384995,123.341454 70.013771,122.378334 70.845802,121.204895 
	C71.419655,121.269295 71.790253,121.544014 72.161667,122.065750 
	C71.905113,122.750183 71.647743,123.187607 71.176613,124.355698 
z"/>
<path fill="#A1ADC3" opacity="1.000000" stroke="none" 
	d="
M70.821442,54.858364 
	C70.070541,54.386242 69.457657,53.596775 68.878517,52.465759 
	C69.594658,52.929813 70.277054,53.735416 70.821442,54.858364 
z"/>
<path fill="#D2D8E3" opacity="1.000000" stroke="none" 
	d="
M98.451859,105.221878 
	C99.040489,105.824318 99.488266,106.737053 99.888313,107.976639 
	C99.330727,107.379723 98.820862,106.455948 98.451859,105.221878 
z"/>
<path fill="#D2D8E3" opacity="1.000000" stroke="none" 
	d="
M100.083252,59.625397 
	C99.489349,59.634960 98.807205,59.357372 98.016891,58.809769 
	C98.604156,58.805916 99.299591,59.072083 100.083252,59.625397 
z"/>
<path fill="#D2D8E3" opacity="1.000000" stroke="none" 
	d="
M94.508072,63.301064 
	C94.649086,62.799282 95.056572,62.151920 95.699203,61.636581 
	C95.547752,62.230896 95.161156,62.693195 94.508072,63.301064 
z"/>
<path fill="#D2D8E3" opacity="1.000000" stroke="none" 
	d="
M94.768524,58.365913 
	C94.436943,58.906857 93.799202,59.374786 92.846329,59.793823 
	C93.174927,59.260918 93.818642,58.776909 94.768524,58.365913 
z"/>
<path fill="#A1ADC3" opacity="1.000000" stroke="none" 
	d="
M86.379959,77.810074 
	C85.890465,77.497993 85.539749,76.977745 85.176949,76.135002 
	C85.616158,76.408974 86.067459,77.005447 86.379959,77.810074 
z"/>
<path fill="#D2D8E3" opacity="1.000000" stroke="none" 
	d="
M105.997398,105.222565 
	C106.460350,105.499130 106.671432,105.938011 106.879150,106.627670 
	C106.394615,106.905876 105.913452,106.933304 105.074059,106.903488 
	C105.059067,106.359116 105.402298,105.871994 105.997398,105.222565 
z"/>
<path fill="#A1ADC3" opacity="1.000000" stroke="none" 
	d="
M87.842316,112.144028 
	C87.393883,111.977242 86.830124,111.534363 86.390648,110.837784 
	C86.918953,111.012039 87.322975,111.439980 87.842316,112.144028 
z"/>
<path fill="#D2D8E3" opacity="1.000000" stroke="none" 
	d="
M93.171791,112.876572 
	C93.016304,112.618286 92.992584,112.161240 93.113892,111.522552 
	C93.323944,111.641792 93.413071,111.940308 93.443146,112.244644 
	C93.456825,112.383095 93.353706,112.533073 93.171791,112.876572 
z"/>
</svg>