<?xml version='1.0' encoding='utf-8'?>
<svg xmlns="http://www.w3.org/2000/svg" width="997.000000pt" height="552.000000pt" viewBox="0 0 997.000000 552.000000"><rect width="100%" height="100%" fill="#FFFFFF" /><path d="M0 2760 l0 -2760 4985 0 4985 0 0 2760 0 2760 -4985 0 -4985 0 0 -2760z m5978 1708 c8 -8 12 -47 12 -108 0 -105 -7 -120 -52 -120 l-28 0 0 -425 0 -425 -40 0 -40 0 -2 423 -3 422 -1047 3 -1048 2 0 -145 0 -145 -40 0 -39 0 -3 143 -3 142 -35 5 -35 5 -3 104 c-2 67 1 108 9 117 10 12 195 14 1198 14 910 0 1190 -3 1199 -12z m-1608 -318 c36 -6 98 -26 139 -46 243 -119 339 -411 215 -657 -36 -70 -145 -177 -215 -210 -148 -69 -326 -63 -464 18 -99 57 -198 192 -224 305 -63 272 118 543 394 589 70 12 82 12 155 1z m570 -435 l0 -445 60 0 60 0 0 148 c0 102 4 152 12 160 7 7 40 12 80 12 l68 0 0 147 c0 186 -2 183 126 183 113 0 124 -9 124 -107 l0 -63 68 0 c40 0 73 -5 80 -12 9 -9 12 -76 12 -240 l0 -228 60 0 60 0 0 -40 0 -40 -439 0 c-391 0 -440 2 -445 16 -3 9 -6 227 -6 485 l0 469 40 0 40 0 0 -445z m-1210 115 l0 -40 -40 0 -40 0 0 40 0 40 40 0 40 0 0 -40z m0 -500 l0 -380 1050 0 1050 0 0 180 0 180 40 0 40 0 0 -180 0 -180 24 0 c46 0 56 -23 56 -129 0 -70 -4 -102 -13 -110 -10 -7 -147 -12 -446 -13 l-432 -3 186 -297 c222 -355 219 -338 61 -338 -86 0 -105 3 -118 18 -8 9 -84 128 -169 264 l-154 248 -3 -252 c-1 -169 -6 -256 -14 -265 -8 -10 -37 -13 -117 -11 l-106 3 -5 265 -5 265 -166 -265 -165 -265 -103 -3 c-102 -3 -131 4 -131 33 0 7 83 145 183 306 l184 294 -430 3 c-297 1 -434 6 -444 13 -9 8 -13 41 -13 115 0 92 2 104 19 114 11 5 29 10 40 10 21 0 21 3 21 380 l0 380 40 0 40 0 0 -380z m240 -265 l0 -45 -40 0 -40 0 0 45 0 45 40 0 40 0 0 -45z m245 0 c0 -40 0 -40 -42 -43 l-43 -3 0 46 0 46 43 -3 c42 -3 42 -3 42 -43z m243 3 c-3 -43 -3 -43 -43 -43 -40 0 -40 0 -43 43 l-3 42 46 0 46 0 -3 -42z m242 -4 l0 -45 -42 3 c-39 3 -43 6 -46 31 -6 46 4 57 48 57 l40 0 0 -46z m400 1 l0 -45 -120 0 -120 0 0 45 0 45 120 0 120 0 0 -45z m650 0 l0 -45 -285 0 -285 0 0 45 0 45 285 0 285 0 0 -45z" fill="#063471" stroke="none" /><path d="M3650 4360 l0 -40 1131 0 1130 0 -3 38 -3 37 -1127 3 -1128 2 0 -40z" fill="#063471" stroke="none" /><path d="M4160 4049 c-30 -10 -77 -36 -105 -57 -52 -39 -120 -120 -110 -131 4 -3 81 -36 173 -73 l167 -67 130 130 130 130 -30 25 c-74 60 -246 81 -355 43z" fill="#063471" stroke="none" /><path d="M4480 3795 l-125 -125 127 -126 126 -127 31 54 c17 30 36 77 42 105 17 77 7 198 -23 264 -42 94 -39 95 -178 -45z" fill="#063471" stroke="none" /><path d="M3907 3763 c-35 -121 1 -261 94 -366 27 -31 66 -59 117 -84 71 -36 82 -38 166 -38 96 0 182 24 236 65 l25 19 -138 139 -138 138 -167 68 c-92 38 -172 70 -179 73 -6 2 -14 -4 -16 -14z" fill="#063471" stroke="none" /><path d="M5310 3550 l0 -280 35 0 35 0 0 280 0 280 -35 0 -35 0 0 -280z" fill="#063471" stroke="none" /><path d="M5470 3470 l0 -200 35 0 35 0 0 200 0 200 -35 0 -35 0 0 -200z" fill="#063471" stroke="none" /><path d="M5140 3390 l0 -120 40 0 40 0 0 120 0 120 -40 0 -40 0 0 -120z" fill="#063471" stroke="none" /><path d="M3650 2820 l0 -40 1128 2 1127 3 3 38 3 37 -1130 0 -1131 0 0 -40z" fill="#063471" stroke="none" /><path d="M4517 2633 c-321 -511 -307 -488 -280 -491 14 -2 31 2 38 10 7 7 81 123 165 258 84 135 160 255 168 268 14 21 13 22 -17 22 -28 0 -36 -7 -74 -67z" fill="#063471" stroke="none" /><path d="M4740 2420 l0 -280 40 0 40 0 0 280 0 280 -40 0 -40 0 0 -280z" fill="#063471" stroke="none" /><path d="M4942 2692 c2 -5 79 -131 173 -280 156 -249 172 -272 197 -272 16 0 28 3 28 6 0 3 -77 129 -171 280 -162 259 -173 274 -201 274 -16 0 -28 -4 -26 -8z" fill="#063471" stroke="none" /><g transform="translate(0.000000,552.000000) scale(0.100000,-0.100000)" fill="#000000" stroke="none" /></svg>