<?xml version="1.0" standalone="no"?>
<!DOCTYPE svg PUBLIC "-//W3C//DTD SVG 20010904//EN"
 "http://www.w3.org/TR/2001/REC-SVG-20010904/DTD/svg10.dtd">
<svg version="1.0" xmlns="http://www.w3.org/2000/svg"
 width="1024.000000pt" height="1024.000000pt" viewBox="0 0 1024.000000 1024.000000"
 preserveAspectRatio="xMidYMid meet">
<metadata>
Created by potrace 1.16, written by Peter Selinger 2001-2019
</metadata>
<g transform="translate(0.000000,1024.000000) scale(0.100000,-0.100000)"
fill="#000000" stroke="none">
<path d="M3523 7795 c-103 -32 -194 -113 -241 -213 l-27 -57 -5 -2547 -5
-2546 -24 -26 c-39 -41 -92 -51 -145 -27 -83 36 -76 -149 -76 1963 0 1531 -3
1894 -14 1939 -25 110 -98 197 -205 248 -49 23 -69 26 -156 26 -93 0 -105 -2
-167 -33 -81 -40 -148 -110 -180 -190 l-23 -57 -3 -672 -3 -673 -75 0 c-126 0
-189 -43 -189 -130 0 -40 5 -54 29 -79 16 -16 42 -35 58 -40 16 -6 100 -9 188
-8 143 2 161 4 187 23 15 11 34 32 40 45 10 18 13 194 13 752 0 799 -2 770 60
802 43 22 102 19 135 -7 58 -46 55 75 55 -1965 0 -1986 -1 -1923 45 -2013 52
-102 147 -169 271 -191 158 -28 333 64 403 211 l26 55 5 2540 c4 1999 8 2545
17 2562 24 40 63 63 109 63 36 0 51 -6 82 -34 l37 -34 5 -1879 5 -1878 26 -56
c36 -75 87 -130 156 -166 113 -59 206 -65 326 -21 79 29 148 93 189 176 l33
67 5 1375 c4 1110 8 1379 18 1398 18 31 71 62 107 62 36 0 89 -31 107 -62 11
-19 14 -404 18 -2063 l5 -2040 33 -67 c75 -152 237 -237 400 -208 172 30 287
147 312 317 6 42 10 547 10 1311 l0 1244 34 34 c30 30 40 34 86 34 46 0 56 -4
86 -34 l34 -34 0 -984 c0 -1084 -2 -1039 62 -1140 40 -64 89 -105 167 -141 85
-40 194 -43 283 -8 80 31 159 106 200 189 l33 67 5 1503 5 1504 37 34 c30 27
46 34 78 34 49 0 94 -22 112 -53 10 -17 14 -291 18 -1317 l5 -1295 27 -57 c53
-114 169 -205 290 -227 166 -30 355 77 420 237 l23 57 3 713 3 712 190 0 c176
0 194 2 229 21 68 38 88 105 50 166 -39 65 -55 68 -355 68 -247 0 -273 -2
-301 -19 -68 -41 -64 7 -64 -838 0 -707 -1 -766 -18 -797 -25 -50 -63 -74
-116 -74 -49 0 -87 20 -113 60 -17 25 -18 107 -23 1328 l-5 1300 -25 50 c-36
75 -133 167 -205 195 -90 36 -208 34 -293 -4 -72 -33 -155 -115 -193 -192
l-24 -49 -5 -1512 -5 -1511 -24 -26 c-59 -63 -160 -48 -204 29 -9 15 -13 291
-17 1030 l-5 1010 -34 63 c-99 182 -318 252 -502 161 -60 -30 -136 -106 -166
-167 l-28 -57 -5 -1300 c-4 -1011 -8 -1305 -17 -1322 -24 -42 -63 -63 -114
-63 -42 0 -55 5 -87 34 l-37 34 -5 2044 -5 2043 -23 56 c-69 172 -265 266
-443 213 -118 -35 -191 -97 -243 -204 l-31 -65 -5 -1378 -5 -1379 -33 -29
c-26 -24 -41 -29 -82 -29 -41 0 -56 5 -82 29 l-33 29 -5 1874 c-4 1336 -8
1882 -16 1903 -36 98 -91 171 -160 211 -87 51 -212 67 -301 39z"/>
<path d="M7026 7746 l-36 -33 0 -219 0 -219 -117 0 c-107 0 -123 -3 -174 -26
-75 -36 -130 -86 -167 -156 -62 -118 -62 -248 1 -366 37 -71 91 -119 177 -161
57 -27 75 -31 150 -31 74 0 93 4 151 31 89 42 142 93 181 172 l33 66 3 222 3
222 49 -33 c54 -37 123 -55 204 -55 79 0 113 -16 137 -61 10 -21 23 -39 27
-39 4 -1 55 -11 115 -24 l107 -24 0 65 c0 90 -16 137 -66 192 -70 78 -215 140
-327 141 -71 0 -165 68 -206 148 -10 20 -28 69 -40 109 -27 89 -53 113 -122
113 -40 0 -53 -5 -83 -34z"/>
</g>
</svg>
