<?xml version="1.0" standalone="no"?>
<!DOCTYPE svg PUBLIC "-//W3C//DTD SVG 20010904//EN"
 "http://www.w3.org/TR/2001/REC-SVG-20010904/DTD/svg10.dtd">
<svg version="1.0" xmlns="http://www.w3.org/2000/svg"
 width="401.000000pt" height="362.000000pt" viewBox="0 0 401.000000 362.000000"
 preserveAspectRatio="xMidYMid meet">
<metadata>
Created by potrace 1.16, written by Peter Selinger 2001-2019
</metadata>
<g transform="translate(0.000000,362.000000) scale(0.100000,-0.100000)"
fill="#000000" stroke="none">
<path d="M1377 2936 c-48 -18 -85 -51 -103 -93 -12 -27 -14 -220 -14 -1111 0
-825 -3 -1081 -12 -1090 -19 -19 -55 -14 -72 10 -14 20 -16 115 -16 831 l0
809 -22 40 c-32 56 -79 82 -149 83 -64 0 -98 -18 -136 -75 -23 -32 -23 -37
-23 -356 l0 -323 -42 -3 c-34 -2 -45 -8 -57 -29 -13 -24 -13 -29 2 -53 17 -25
21 -26 107 -26 88 0 91 1 100 25 6 15 10 168 9 358 0 328 0 332 22 350 28 22
46 22 59 -2 7 -13 10 -290 10 -828 0 -765 1 -810 19 -849 22 -48 60 -80 112
-94 68 -19 153 18 188 80 l21 38 0 1079 c0 1033 1 1081 18 1096 22 20 53 22
70 5 9 -9 12 -203 12 -812 0 -761 1 -803 19 -842 29 -63 78 -95 144 -95 58 0
100 16 130 49 45 50 46 65 47 694 0 529 2 598 16 612 21 21 47 20 67 -2 16
-17 17 -94 17 -904 l0 -885 23 -34 c12 -18 38 -44 56 -56 66 -45 175 -23 226
45 19 26 20 47 25 589 5 520 6 564 23 580 16 16 19 16 45 1 l27 -17 5 -438 5
-438 24 -38 c54 -88 167 -101 245 -29 57 54 56 37 56 721 l0 630 23 27 c23 27
24 27 53 10 l29 -17 -3 -487 c-2 -268 0 -520 3 -559 7 -81 29 -123 84 -160 66
-45 172 -19 221 54 l25 36 3 299 3 298 57 0 c70 0 102 19 102 60 0 51 -33 64
-148 55 -65 -5 -103 -12 -114 -23 -16 -14 -18 -43 -18 -332 0 -300 -1 -318
-19 -334 -11 -10 -28 -16 -38 -14 -41 8 -43 28 -43 591 0 377 -3 545 -11 560
-20 39 -72 86 -106 98 -66 22 -154 -13 -193 -76 -20 -33 -21 -42 -20 -670 0
-586 -1 -639 -17 -666 -20 -33 -43 -37 -66 -11 -15 17 -17 61 -17 431 0 348
-2 417 -15 448 -20 48 -41 71 -87 94 -75 38 -156 17 -205 -53 l-28 -41 -3
-558 c-3 -555 -3 -559 -24 -570 -16 -9 -26 -7 -47 9 l-26 19 -5 889 -5 889
-24 38 c-26 42 -85 77 -131 77 -44 0 -104 -34 -137 -77 l-28 -36 -3 -611 c-2
-548 -4 -612 -19 -628 -21 -24 -60 -23 -73 1 -7 13 -10 285 -10 812 0 787 0
793 -21 837 -38 77 -126 116 -202 88z"/>
<path d="M2912 2908 c-8 -8 -12 -46 -12 -104 l0 -93 -32 10 c-36 10 -90 -1
-127 -27 -39 -28 -60 -87 -50 -141 20 -104 135 -155 230 -101 50 28 69 70 76
173 6 83 6 84 27 69 12 -8 39 -19 61 -25 22 -6 48 -18 57 -26 10 -9 38 -16 63
-17 52 -1 57 11 29 70 -17 35 -81 74 -122 74 -29 0 -98 63 -107 98 -4 15 -11
33 -17 39 -13 16 -60 17 -76 1z"/>
</g>
</svg>
